<svg width="120" height="82" viewBox="0 0 120 82" xmlns="http://www.w3.org/2000/svg"><title>bathroom-smart-devices</title><defs><linearGradient x1="100%" y1="0%" x2="0%" y2="100%" id="a"><stop stop-color="#2F60CE" offset="0%"/><stop stop-color="#1E3E84" offset="98.325%"/></linearGradient></defs><g transform="translate(-900 -799)" fill="url(#a)"><path d="M1018.696 878.397h-13.537l1.427-9.394c2.761-2.167 4.284-5.636 4.284-10.13a.978.978 0 0 0-.979-.976h-1.368l-.916-13.72c-.011-.245-.113-.957-.85-1.7-1.418-1.428-4.314-2.152-8.605-2.152-8.813 0-9.43 3.135-9.455 3.86l-.916 13.712h-1.368a.978.978 0 0 0-.978.976c0 4.494 1.522 7.963 4.283 10.13l1.427 9.394h-89.84a.978.978 0 0 0-.979.976c0 .539.438.976.978.976h117.392c.54 0 .978-.437.978-.976a.978.978 0 0 0-.978-.976zm-28.046-34.102l.002-.056c0-.02.693-1.961 7.5-1.961 6.77 0 7.465 1.884 7.501 2.01a.01.01 0 0 1 .002.007l.908 13.602h-16.821l.908-13.602zm-3.227 15.554h21.457c-.23 3.554-1.897 9.762-10.73 9.762-8.83 0-10.497-6.208-10.727-9.762zm4.475 10.473c1.769.812 3.866 1.241 6.254 1.241 2.388 0 4.485-.429 6.255-1.241l-1.227 8.075h-10.057l-1.225-8.075zm-84.724-11.937h5.17l-.268 1.81a.968.968 0 0 0 .294.85.973.973 0 0 0 .867.249l14.673-2.929a.976.976 0 0 0 .774-1.116l-5.87-35.143a.728.728 0 0 0-.015-.077c-.817-3.262-2.768-5.132-5.352-5.132-2.654 0-4.707 1.982-5.36 5.174-.004.011-.005.023-.007.035l-5.87 35.143a.975.975 0 0 0 .964 1.136zm6.83-35.94c.18-.868.948-3.596 3.442-3.596 2.081 0 3.02 1.958 3.443 3.616l5.707 34.172-12.383 2.47 2.406-16.2a.978.978 0 0 0-1.936-.284l-2.05 13.808h-4.305l5.677-33.987zm22.518 8.118h41.087c.54 0 .978-.437.978-.976v-29.285a.978.978 0 0 0-.978-.977h-41.087a.978.978 0 0 0-.979.977v29.285c0 .54.439.976.979.976zm.978-29.285h39.13v27.333H937.5v-27.333z"/><path d="M960.691 808.397a.98.98 0 0 0-1.384 0l-11.739 11.715a.975.975 0 0 0 .692 1.667c.25 0 .5-.095.69-.286l11.74-11.715a.974.974 0 0 0 .001-1.38zm4.487 2.929l-5.87 5.857a.975.975 0 0 0 .692 1.668c.25 0 .5-.096.691-.287l5.87-5.857a.975.975 0 0 0 0-1.381.978.978 0 0 0-1.383 0zm-28.656 60.237h41.087c.54 0 .978-.437.978-.976v-29.285a.978.978 0 0 0-.978-.977h-19.566v-4.88a.978.978 0 0 0-1.956 0v4.88h-19.565a.978.978 0 0 0-.979.977v29.285c0 .54.439.976.979.976zm.978-20.5h18.587v18.548H937.5v-18.548zm20.543 18.548v-18.548h18.587v18.548h-18.587zm18.587-27.333v6.833H937.5v-6.833h39.13z"/><path d="M962.243 855.255a.981.981 0 0 0-.286.69.981.981 0 0 0 .978.976.981.981 0 0 0 .978-.976.979.979 0 0 0-.287-.69c-.365-.366-1.02-.362-1.383 0zm-10.356 0c-.361-.365-1.017-.365-1.383 0a.981.981 0 0 0-.287.69.981.981 0 0 0 .979.976.981.981 0 0 0 .978-.976.979.979 0 0 0-.287-.69zm38.101-37.264a.979.979 0 0 0 1.157.742l.243 1.092h-.41a.98.98 0 0 0-.968 1.12l1.305 8.785a.978.978 0 0 0 .968.833h3.913a.977.977 0 0 0 .967-.833l1.305-8.785a.977.977 0 0 0-.968-1.12h-.497l.644-4.343c.028.007.055.017.084.02a.979.979 0 0 0 1.11-.824l.278-1.87a.977.977 0 0 0-1.028-1.116.974.974 0 0 0-.776-.643.982.982 0 0 0-1.112.822l-1.177 7.954h-1.632l-1.134-5.093a.981.981 0 0 0-1.167-.742.978.978 0 0 0-.767.977h-.008a.976.976 0 0 0-.743 1.164l.413 1.86zm5.365 10.62h-2.226l-1.014-6.833h4.255l-1.015 6.833z"/></g></svg>