<svg width="120" height="82" viewBox="0 0 120 82" xmlns="http://www.w3.org/2000/svg"><title>bedroom-smart-devices</title><defs><linearGradient x1="100%" y1="0%" x2="0%" y2="100%" id="a"><stop stop-color="#2F60CE" offset="0%"/><stop stop-color="#1E3E84" offset="98.325%"/></linearGradient></defs><g transform="translate(-660 -799)" fill="url(#a)"><path d="M778.696 878.397h-10.761v-25.381a.978.978 0 0 0-.978-.976h-7.827v-6.834h4.898a.978.978 0 0 0 .916-1.322l-2.907-11.605a.978.978 0 0 0-.95-.74h-11.74a.98.98 0 0 0-.95.74l-2.935 11.714a.97.97 0 0 0 .18.838c.185.239.47.375.771.375h4.891v6.834h-7.826a.978.978 0 0 0-.978.976v25.38h-12.717v-9.761h4.89c.54 0 .98-.437.98-.976v-14.643a.978.978 0 0 0-.98-.976h-1.956v-13.667a.978.978 0 0 0-.978-.976h-55.76a.978.978 0 0 0-.979.976v13.667h-1.957a.978.978 0 0 0-.978.976v14.643c0 .539.438.976.978.976h4.892v9.762h-16.63a.978.978 0 0 0-.979.976c0 .539.438.976.978.976h117.392c.54 0 .978-.437.978-.976a.978.978 0 0 0-.978-.976zm-28.584-44.905h10.21l2.446 9.762h-15.101l2.445-9.762zm3.149 11.714h3.913v6.834h-3.913v-6.834zm12.717 8.786v9.762h-21.521v-9.762h21.521zm-21.521 11.714h21.521v12.69h-21.521v-12.69zm-67.5-26.357h53.804v12.69h-3.968c-.63-5.851-6.948-5.856-9.728-5.856-2.78 0-9.098.005-9.728 5.857h-6.957c-.63-5.852-6.948-5.857-9.728-5.857-2.78 0-9.098.005-9.728 5.857h-3.967v-12.69zm47.86 12.69h-15.504c.557-3.581 4.262-3.904 7.752-3.904s7.198.323 7.752 3.905zm-26.413 0H682.9c.557-3.581 4.262-3.904 7.752-3.904s7.196.323 7.752 3.905zm-24.382 1.953h59.674v12.69h-59.674v-12.69zm5.87 14.643h47.934v9.762h-47.935v-9.762z"/><path d="M755.217 859.85a.978.978 0 0 0 .69-1.667c-.364-.364-1.016-.364-1.384 0a.981.981 0 0 0-.286.69.979.979 0 0 0 .98.976zm-73.369-32.215h44.022c.54 0 .978-.437.978-.976v-26.357a.978.978 0 0 0-.978-.977h-44.022a.978.978 0 0 0-.978.977v26.357c0 .539.438.976.978.976zm.978-6.429l9.294-9.273 13.779 13.75h-23.073v-4.477zm42.065-19.928v24.405h-16.224l-15.856-15.821a.98.98 0 0 0-1.384 0l-8.6 8.582v-17.166h42.064z"/><path d="M714.13 818.85c3.777 0 6.848-3.066 6.848-6.834s-3.071-6.833-6.848-6.833c-3.776 0-6.847 3.065-6.847 6.833 0 3.768 3.071 6.833 6.847 6.833zm0-11.715c2.698 0 4.892 2.19 4.892 4.88a4.892 4.892 0 0 1-9.782.001 4.89 4.89 0 0 1 4.89-4.881z"/></g></svg>