<svg width="120" height="82" viewBox="0 0 120 82" xmlns="http://www.w3.org/2000/svg"><title>kitchen-smart-devices</title><defs><linearGradient x1="100%" y1="0%" x2="0%" y2="100%" id="a"><stop stop-color="#2F60CE" offset="0%"/><stop stop-color="#1E3E84" offset="98.325%"/></linearGradient></defs><g transform="translate(-420 -799)" fill="url(#a)"><path d="M538.696 878.397h-7.826v-78.095a.978.978 0 0 0-.979-.977h-29.348a.978.978 0 0 0-.978.977v42.952h-33.26v-4.069l8.004-1.481a.976.976 0 1 0-.356-1.92l-7.649 1.418v-.456a.978.978 0 0 0-.978-.976h-11.739a.978.978 0 0 0-.978.976v6.508h-22.5a.978.978 0 0 0-.979.976v34.167h-7.826a.978.978 0 0 0-.978.976c0 .539.438.976.978.976h117.392c.54 0 .978-.437.978-.976a.978.978 0 0 0-.978-.976zm-37.174-33.19h27.391v33.19h-27.391v-33.19zm27.391-43.93v41.977h-27.391v-41.976h27.391zm-29.348 71.263h-18.587v-27.334h18.587v27.334zm-47.935 0v-15.62h27.392v15.62H451.63zm1.957-27.334h25.435v9.762H451.63v-9.762h1.957zm.978-7.484h9.783v5.532h-9.783v-5.532zm-4.891 7.484v27.334h-18.587v-27.334h18.587zm-18.587 29.286h68.478v3.905h-68.478v-3.905z"/><path d="M506.413 839.35c.54 0 .978-.438.978-.977v-8.786a.978.978 0 0 0-1.956 0v8.786c0 .539.438.976.978.976zm0 9.761a.978.978 0 0 0-.978.976v8.786a.978.978 0 0 0 1.956 0v-8.786a.978.978 0 0 0-.978-.976zm-55.761-24.405H480c.54 0 .978-.437.978-.976v-5.857a.978.978 0 0 0-.978-.976h-7.826v-16.595a.978.978 0 0 0-.978-.977h-11.74a.978.978 0 0 0-.978.977v16.595h-7.826a.978.978 0 0 0-.978.976v5.857c0 .539.438.976.978.976zm9.783-23.428h9.782v15.619h-9.782v-15.62zm-8.805 17.571h27.392v3.905H451.63v-3.905zm33.55 31.928a.978.978 0 0 0 1.668-.69.975.975 0 0 0-.288-.69c-.364-.364-1.02-.364-1.384 0a.981.981 0 0 0-.287.69c0 .257.107.51.29.69zm-40.397.286a.985.985 0 0 0 .69-.286.986.986 0 0 0 .288-.69.979.979 0 0 0-.287-.69c-.361-.364-1.017-.364-1.383 0a.981.981 0 0 0-.287.69.979.979 0 0 0 .979.976zm14.674 0h11.739c.54 0 .978-.437.978-.976a.978.978 0 0 0-.978-.976h-11.74a.978.978 0 0 0-.978.976c0 .54.439.976.979.976zm11.778 11.35a.98.98 0 0 0-1.384 0l-3.587 3.58a.977.977 0 1 0 1.383 1.382l3.586-3.58a.975.975 0 0 0 .002-1.382zm-4.565-1.301a.98.98 0 0 0-1.384 0l-5.87 5.857a.977.977 0 1 0 1.383 1.382l5.87-5.857a.975.975 0 0 0 0-1.382z"/></g></svg>