<svg width="120" height="82" viewBox="0 0 120 82" xmlns="http://www.w3.org/2000/svg"><title>living-room-smart-devices</title><defs><linearGradient x1="100%" y1="0%" x2="0%" y2="100%" id="a"><stop stop-color="#2F60CE" offset="0%"/><stop stop-color="#1E3E84" offset="98.325%"/></linearGradient></defs><g transform="translate(-180 -799)" fill="url(#a)"><path d="M298.696 878.396H285v-53.691h7.833a.978.978 0 0 0 .915-1.322l-2.907-11.605a.982.982 0 0 0-.951-.74h-11.74a.978.978 0 0 0-.95.74l-2.935 11.714a.963.963 0 0 0 .182.837.973.973 0 0 0 .77.376h7.826v53.69h-9.782v-3.904h1.956c.54 0 .979-.438.979-.976v-17.572a.978.978 0 0 0-.979-.976h-4.89v-4.881a3.914 3.914 0 0 0-3.914-3.905h-17.609a3.906 3.906 0 0 0-2.934 1.33 3.906 3.906 0 0 0-2.935-1.33h-17.609a3.914 3.914 0 0 0-3.913 3.905v4.881h-4.891a.978.978 0 0 0-.979.976v17.572c0 .538.439.976.979.976h1.956v3.905h-10.355l-8.232-8.215v-7.405h7.826c.54 0 .979-.437.979-.976a.978.978 0 0 0-.979-.976h-3.412l1.417-7.631a.976.976 0 0 0-.961-1.153h-3.148l1.047-9.503c.282.067.572.107.863.107a3.72 3.72 0 0 0 3.21-1.85c2.22-3.837 1.19-7.82 1.144-7.988a.981.981 0 0 0-1.198-.691c-.168.046-4.139 1.147-6.36 4.985a3.697 3.697 0 0 0 .493 4.362l-1.169 10.578h-1.488l-1.184-13.408a4.711 4.711 0 0 0 1.78-2.594 4.711 4.711 0 0 0-.474-3.6c-2.998-5.18-8.352-6.662-8.58-6.724a.976.976 0 0 0-1.197.69c-.06.226-1.451 5.593 1.547 10.775a4.766 4.766 0 0 0 5.034 2.282l1.111 12.576h-3.17a.99.99 0 0 0-.753.353.968.968 0 0 0-.21.8l1.416 7.631h-3.366a.978.978 0 1 0 0 1.957h7.826v7.403l-8.232 8.216h-8.399a.978.978 0 0 0-.978.976c0 .539.438.976.978.976h117.392a.978.978 0 1 0 0-1.953zm-19.78-65.405h10.211l2.446 9.762H276.47l2.446-9.762zm-76.905 25.084c1.176-2.033 3.002-3.142 4.14-3.67.11 1.25.061 3.382-1.114 5.414a1.754 1.754 0 0 1-2.387.638 1.747 1.747 0 0 1-.64-2.382zm-10.27-1.872c-1.853-3.202-1.75-6.57-1.538-8.234 1.55.65 4.526 2.246 6.378 5.446a2.77 2.77 0 0 1 .279 2.118 2.796 2.796 0 0 1-2.696 2.068 2.813 2.813 0 0 1-2.424-1.398zm2.456 17.788h9.387l-1.268 6.833h-6.85l-1.27-6.833zm50.694 12.69H223.37v-3.905h21.521v3.905zm1.957-3.905h21.522v3.905h-21.522v-3.905zm1.956-14.642h17.609c1.079 0 1.957.876 1.957 1.952v10.738h-21.522v-10.738c0-1.076.878-1.952 1.956-1.952zm-25.434 1.952c0-1.076.877-1.952 1.956-1.952h17.609c1.078 0 1.956.876 1.956 1.952v10.738H223.37v-10.738zm-5.87 6.833h3.913v10.738c0 .54.438.977.978.977h46.957c.54 0 .978-.438.978-.977V856.92h3.913v15.62H217.5v-15.62zm2.935 17.572h50.87v3.905h-50.87v-3.905zm-15.08 3.905h-5.464v-5.453l5.464 5.453zm-7.42-5.453v5.453h-5.464l5.464-5.453z"/><path d="M204.783 821.776h17.608c.54 0 .979-.437.979-.976v-20.5a.978.978 0 0 0-.979-.976h-17.608a.978.978 0 0 0-.979.976v20.5c0 .54.439.976.979.976zm16.63-1.952h-15.652v-4.109c.642.13 1.295.204 1.956.204 5.395 0 9.783-4.378 9.783-9.762 0-1.728-.46-3.407-1.313-4.88h5.226v18.547zm-15.652-18.548h8.065a7.779 7.779 0 0 1 1.717 4.881c0 4.307-3.51 7.81-7.826 7.81a7.902 7.902 0 0 1-1.956-.246v-12.445zm22.499 32.214h35.218c.54 0 .979-.437.979-.975v-26.358a.978.978 0 0 0-.979-.976h-35.217a.978.978 0 0 0-.978.976v26.358c0 .538.438.976.978.976zm.98-9.356l4.89-4.881 12.312 12.285H229.24v-7.404zm33.26-17v24.404h-13.29l-14.388-14.356a.98.98 0 0 0-1.384 0l-4.199 4.19v-14.238H262.5z"/><path d="M251.793 824.597c3.747 0 6.794-3.041 6.794-6.78 0-3.738-3.047-6.779-6.794-6.779-3.746 0-6.793 3.041-6.793 6.78 0 3.738 3.047 6.779 6.793 6.779zm0-11.622c2.676 0 4.853 2.172 4.853 4.842 0 2.67-2.177 4.843-4.853 4.843a4.852 4.852 0 0 1-4.852-4.843 4.852 4.852 0 0 1 4.852-4.842z"/></g></svg>