<svg width="120" height="85" viewBox="0 0 120 85" xmlns="http://www.w3.org/2000/svg"><title>office-smart-devices</title><defs><linearGradient x1="100%" y1="0%" x2="0%" y2="100%" id="a"><stop stop-color="#2F60CE" offset="0%"/><stop stop-color="#1E3E84" offset="98.325%"/></linearGradient></defs><g transform="translate(-1140 -796)" fill="url(#a)"><path d="M1258.696 878.385H1245v-34.327a.98.98 0 0 0-.978-.981h-25.435v-6.865h13.696a.98.98 0 0 0 .978-.981v-29.423a.98.98 0 0 0-.978-.981h-41.087a.98.98 0 0 0-.979.98v29.424c0 .541.439.98.979.98h13.695v6.866h-30.326v-1.042c.215.035.432.061.652.061a3.923 3.923 0 0 0 3.913-3.923 3.923 3.923 0 0 0-3.913-3.923c-.22 0-.437.025-.652.061v-2.023a.98.98 0 0 0-.978-.98h-8.804a.98.98 0 0 0-.979.98v10.789h-7.826a.98.98 0 0 0-.978.98v34.328h-13.696a.98.98 0 0 0 0 1.961h117.392a.98.98 0 0 0 0-1.961zm-15.653 0h-18.586v-4.904a.983.983 0 0 0-.741-.954l-10.999-2.755V859.75h10.761c.54 0 .979-.445.979-.986v-2.937c0-3.923-6.178-3.923-12.718-3.923s-12.717 0-12.717 3.923v2.942a.98.98 0 0 0 .978.981h10.76v10.022l-10.997 2.755a.983.983 0 0 0-.741.954v4.904h-18.587v-33.347h62.608v33.347zm-42.065-20.597v-1.961c0-1.962 6.222-1.962 10.761-1.962 4.54 0 10.761 0 10.761 1.962v1.961h-21.522zm9.783 20.597h-9.783v-4.138l9.783-2.452v6.59zm1.956-6.59l9.783 2.452v4.138h-9.783v-6.59zm-55.76-14.987h21.521v9.807h-21.521v-9.807zm74.347-50.02v21.577h-39.13v-21.577h39.13zm-39.13 23.539h39.13v3.923h-39.13v-3.923zm14.674 5.885h9.782v6.865h-9.782v-6.865zm-31.63 0a1.961 1.961 0 0 1 0 3.923c-.225 0-.443-.038-.653-.115v-3.695c.21-.076.43-.113.652-.113zm-9.457-2.943h6.848v9.808h-6.848v-9.808zm-.978 11.77h13.695v9.807h-21.521v-9.808h7.826zm-7.826 23.538h21.521v9.808h-21.521v-9.808z"/><path d="M1167.717 850.923a.983.983 0 0 0 .979-.98.986.986 0 0 0-.287-.694c-.366-.366-1.018-.366-1.383 0a.988.988 0 0 0-.287.693.983.983 0 0 0 .978.98zm.692 10.095c-.366-.366-1.018-.366-1.383 0a.988.988 0 0 0-.287.694.983.983 0 0 0 .978.98.983.983 0 0 0 .979-.98.986.986 0 0 0-.287-.694zm0 11.77c-.366-.366-1.02-.366-1.383 0a.988.988 0 0 0-.287.693.983.983 0 0 0 .978.98.983.983 0 0 0 .979-.98.986.986 0 0 0-.287-.693zm34.526-48.346c.249 0 .5-.095.69-.287l11.739-11.77a.982.982 0 0 0 0-1.388.977.977 0 0 0-1.384 0l-11.74 11.769a.984.984 0 0 0 .695 1.676zm11.049-3.23a.974.974 0 0 0 1.38 0l5.87-5.884a.982.982 0 0 0 0-1.39.977.977 0 0 0-1.384 0l-5.87 5.886a.986.986 0 0 0 .004 1.388zm-58.006.288h23.479a.98.98 0 0 0 .978-.98v-20.597a.98.98 0 0 0-.978-.98h-2.935v-1.962a.98.98 0 0 0-.979-.981.98.98 0 0 0-.978.98v1.962h-13.695v-1.961a.98.98 0 0 0-.979-.981.98.98 0 0 0-.978.98v1.962h-2.935a.98.98 0 0 0-.978.981v20.596a.98.98 0 0 0 .978.981zm.979-1.962v-12.75h21.521v12.75h-21.521zm1.956-18.634v1.961a.98.98 0 0 0 .978.981.98.98 0 0 0 .979-.98v-1.962h13.695v1.961a.98.98 0 0 0 .978.981.98.98 0 0 0 .979-.98v-1.962h1.956v3.923h-21.521v-3.923h1.956z"/></g></svg>