<svg width="135" height="26" viewBox="0 0 135 26" xmlns="http://www.w3.org/2000/svg"><title>Desktop HD</title><path d="M.238 10.016V7.52h2.184V3.906H5.49V7.52h3.12v2.496H5.49v5.798c0 .555.1 1.014.299 1.378.2.364.646.546 1.339.546.208 0 .433-.022.676-.065.243-.043.46-.108.65-.195l.104 2.444a5.13 5.13 0 0 1-.988.247c-.381.06-.745.091-1.092.091-.832 0-1.508-.117-2.028-.351-.52-.234-.932-.555-1.235-.962a3.561 3.561 0 0 1-.624-1.404 8.163 8.163 0 0 1-.169-1.703v-5.824H.238zm17.576-2.86c.815 0 1.512.143 2.093.429.58.286 1.057.663 1.43 1.131.373.468.646 1.005.819 1.612.173.607.26 1.23.26 1.872V20h-3.12v-6.864a8.56 8.56 0 0 0-.078-1.131 3.257 3.257 0 0 0-.325-1.066 2.128 2.128 0 0 0-.702-.793c-.303-.208-.706-.312-1.209-.312-.503 0-.936.095-1.3.286-.364.19-.667.446-.91.767a3.4 3.4 0 0 0-.546 1.079 4.174 4.174 0 0 0-.182 1.222V20h-3.12V.344h3.12v8.918h.052c.121-.26.299-.516.533-.767a4.203 4.203 0 0 1 1.885-1.157 4.447 4.447 0 0 1 1.3-.182zm8.294.364h3.12V20h-3.12V7.52zm-.442-4.238c0-.503.186-.94.559-1.313.373-.373.845-.559 1.417-.559.572 0 1.053.178 1.443.533.39.355.585.802.585 1.339 0 .537-.195.984-.585 1.339-.39.355-.871.533-1.443.533-.572 0-1.044-.186-1.417-.559-.373-.373-.559-.81-.559-1.313zm7.358 4.238h2.964v2.002h.052c.277-.624.758-1.174 1.443-1.651.685-.477 1.495-.715 2.431-.715.815 0 1.512.143 2.093.429.58.286 1.057.663 1.43 1.131.373.468.646 1.005.819 1.612.173.607.26 1.23.26 1.872V20h-3.12v-6.916c0-.364-.026-.745-.078-1.144a3.088 3.088 0 0 0-.338-1.079 2.242 2.242 0 0 0-.715-.793c-.303-.208-.706-.312-1.209-.312-.503 0-.936.1-1.3.299a2.76 2.76 0 0 0-.897.767 3.396 3.396 0 0 0-.533 1.079 4.305 4.305 0 0 0-.182 1.235V20h-3.12V7.52zm27.82 0v11.362c0 1.127-.139 2.145-.416 3.055-.277.91-.706 1.681-1.287 2.314-.58.633-1.313 1.122-2.197 1.469-.884.347-1.933.52-3.146.52-.503 0-1.036-.043-1.599-.13a11.04 11.04 0 0 1-1.664-.39 9.99 9.99 0 0 1-1.573-.65 7.585 7.585 0 0 1-1.352-.884l1.794-2.418a6.44 6.44 0 0 0 2.054 1.313 6.215 6.215 0 0 0 2.314.455c.745 0 1.374-.108 1.885-.325.511-.217.919-.516 1.222-.897.303-.381.52-.832.65-1.352.13-.52.195-1.092.195-1.716v-.91h-.052a4.386 4.386 0 0 1-1.729 1.391c-.702.32-1.486.481-2.353.481-.936 0-1.785-.173-2.548-.52a5.776 5.776 0 0 1-1.937-1.404 6.431 6.431 0 0 1-1.235-2.067 7.11 7.11 0 0 1-.442-2.509c0-.901.143-1.75.429-2.548a6.223 6.223 0 0 1 1.222-2.08 5.811 5.811 0 0 1 1.924-1.404c.754-.347 1.599-.52 2.535-.52a5.66 5.66 0 0 1 2.47.546c.763.364 1.37.927 1.82 1.69h.052V7.52h2.964zm-6.656 2.184c-.572 0-1.079.104-1.521.312-.442.208-.815.49-1.118.845a3.798 3.798 0 0 0-.702 1.261 4.824 4.824 0 0 0-.247 1.56c0 .503.082.988.247 1.456.165.468.399.888.702 1.261a3.42 3.42 0 0 0 1.118.897c.442.225.94.338 1.495.338.572 0 1.088-.108 1.547-.325.46-.217.85-.507 1.17-.871a3.91 3.91 0 0 0 .741-1.261 4.34 4.34 0 0 0 .26-1.495c0-.537-.087-1.049-.26-1.534a3.878 3.878 0 0 0-.741-1.274 3.45 3.45 0 0 0-1.157-.858c-.45-.208-.962-.312-1.534-.312zm8.606.312V7.52h2.184V3.906h3.068V7.52h3.12v2.496h-3.12v5.798c0 .555.1 1.014.299 1.378.2.364.646.546 1.339.546.208 0 .433-.022.676-.065.243-.043.46-.108.65-.195l.104 2.444a5.13 5.13 0 0 1-.988.247c-.381.06-.745.091-1.092.091-.832 0-1.508-.117-2.028-.351-.52-.234-.932-.555-1.235-.962a3.561 3.561 0 0 1-.624-1.404 8.163 8.163 0 0 1-.169-1.703v-5.824h-2.184zm19.422 2.496c0-.399-.056-.78-.169-1.144a2.618 2.618 0 0 0-.533-.962 2.602 2.602 0 0 0-.923-.663c-.373-.165-.81-.247-1.313-.247-.936 0-1.729.282-2.379.845-.65.563-1.01 1.287-1.079 2.171h6.396zm3.12 1.404v.416c0 .139-.009.277-.026.416h-9.49a3.09 3.09 0 0 0 1.144 2.197c.33.269.702.481 1.118.637.416.156.85.234 1.3.234.78 0 1.439-.143 1.976-.429.537-.286.98-.68 1.326-1.183l2.08 1.664c-1.23 1.664-3.016 2.496-5.356 2.496-.97 0-1.863-.152-2.678-.455a6.32 6.32 0 0 1-2.119-1.287 5.8 5.8 0 0 1-1.404-2.041c-.338-.806-.507-1.72-.507-2.743 0-1.005.169-1.92.507-2.743a6.244 6.244 0 0 1 1.391-2.106 6.222 6.222 0 0 1 2.093-1.352 7.004 7.004 0 0 1 2.613-.481 6.59 6.59 0 0 1 2.405.429c.737.286 1.374.71 1.911 1.274.537.563.958 1.265 1.261 2.106.303.84.455 1.824.455 2.951zm3.016-6.396h2.99V9.6h.052a4.552 4.552 0 0 1 1.456-1.768c.624-.45 1.352-.676 2.184-.676.121 0 .251.004.39.013s.26.03.364.065v2.86a3.673 3.673 0 0 0-.962-.13c-.71 0-1.283.13-1.716.39a3.12 3.12 0 0 0-1.014.936 3.352 3.352 0 0 0-.494 1.118c-.087.381-.13.685-.13.91V20h-3.12V7.52zm9.464 0h2.964v2.002h.052c.277-.624.758-1.174 1.443-1.651.685-.477 1.495-.715 2.431-.715.815 0 1.512.143 2.093.429.58.286 1.057.663 1.43 1.131.373.468.646 1.005.819 1.612.173.607.26 1.23.26 1.872V20h-3.12v-6.916c0-.364-.026-.745-.078-1.144a3.088 3.088 0 0 0-.338-1.079 2.242 2.242 0 0 0-.715-.793c-.303-.208-.706-.312-1.209-.312-.503 0-.936.1-1.3.299a2.76 2.76 0 0 0-.897.767 3.396 3.396 0 0 0-.533 1.079 4.305 4.305 0 0 0-.182 1.235V20h-3.12V7.52zm23.92 4.992c0-.399-.056-.78-.169-1.144a2.618 2.618 0 0 0-.533-.962 2.602 2.602 0 0 0-.923-.663c-.373-.165-.81-.247-1.313-.247-.936 0-1.729.282-2.379.845-.65.563-1.01 1.287-1.079 2.171h6.396zm3.12 1.404v.416c0 .139-.009.277-.026.416h-9.49a3.09 3.09 0 0 0 1.144 2.197c.33.269.702.481 1.118.637.416.156.85.234 1.3.234.78 0 1.439-.143 1.976-.429.537-.286.98-.68 1.326-1.183l2.08 1.664c-1.23 1.664-3.016 2.496-5.356 2.496-.97 0-1.863-.152-2.678-.455a6.32 6.32 0 0 1-2.119-1.287 5.8 5.8 0 0 1-1.404-2.041c-.338-.806-.507-1.72-.507-2.743 0-1.005.169-1.92.507-2.743a6.244 6.244 0 0 1 1.391-2.106 6.222 6.222 0 0 1 2.093-1.352 7.004 7.004 0 0 1 2.613-.481 6.59 6.59 0 0 1 2.405.429c.737.286 1.374.71 1.911 1.274.537.563.958 1.265 1.261 2.106.303.84.455 1.824.455 2.951zm1.222-3.9V7.52h2.184V3.906h3.068V7.52h3.12v2.496h-3.12v5.798c0 .555.1 1.014.299 1.378.2.364.646.546 1.339.546.208 0 .433-.022.676-.065.243-.043.46-.108.65-.195l.104 2.444a5.13 5.13 0 0 1-.988.247c-.381.06-.745.091-1.092.091-.832 0-1.508-.117-2.028-.351-.52-.234-.932-.555-1.235-.962a3.561 3.561 0 0 1-.624-1.404 8.163 8.163 0 0 1-.169-1.703v-5.824h-2.184z" fill="#FFF" fill-rule="evenodd"/></svg>