<?xml version="1.0" encoding="UTF-8"?>
<svg width="120px" height="82px" viewBox="0 0 120 82" version="1.1" xmlns="http://www.w3.org/2000/svg" xmlns:xlink="http://www.w3.org/1999/xlink">
    <!-- Generator: Sketch 50.2 (55047) - http://www.bohemiancoding.com/sketch -->
    <title>bathroom-smart-devices</title>
    <desc>Created with Sketch.</desc>
    <defs>
        <linearGradient x1="100%" y1="0%" x2="0%" y2="100%" id="linearGradient-1">
            <stop stop-color="#2F60CE" offset="0%"></stop>
            <stop stop-color="#1E3E84" offset="98.3246026%"></stop>
        </linearGradient>
    </defs>
    <g id="Page-1" stroke="none" stroke-width="1" fill="none" fill-rule="evenodd">
        <g id="Desktop-HD" transform="translate(-900.000000, -799.000000)" fill="url(#linearGradient-1)" fill-rule="nonzero">
            <g id="Group-11" transform="translate(132.000000, 676.000000)">
                <g id="Group-6" transform="translate(720.000000, 82.000000)">
                    <g id="noun_Bathroom_254092" transform="translate(48.000000, 41.000000)">
                        <path d="M118.695652,79.3968254 L105.15913,79.3968254 L106.586087,70.0032698 C109.347391,67.836127 110.869565,64.3673968 110.869565,59.8730159 C110.869565,59.3341587 110.431304,58.8968254 109.891304,58.8968254 L108.523043,58.8968254 L107.607391,45.1767937 C107.595652,44.9320952 107.493913,44.220127 106.756957,43.4769206 C105.33913,42.0490794 102.443478,41.3253968 98.1521739,41.3253968 C89.3386957,41.3253968 88.7217391,44.459619 88.6969565,45.1859048 L87.7813043,58.8968254 L86.4130435,58.8968254 C85.8730435,58.8968254 85.4347826,59.3341587 85.4347826,59.8730159 C85.4347826,64.3673968 86.9569565,67.836127 89.7182609,70.0032698 L91.1452174,79.3968254 L1.30434783,79.3968254 C0.764347826,79.3968254 0.326086957,79.8341587 0.326086957,80.3730159 C0.326086957,80.911873 0.764347826,81.3492063 1.30434783,81.3492063 L118.695652,81.3492063 C119.235652,81.3492063 119.673913,80.911873 119.673913,80.3730159 C119.673913,79.8341587 119.235652,79.3968254 118.695652,79.3968254 Z M90.6495652,45.2952381 C90.6508696,45.2757143 90.6521739,45.2587937 90.6521739,45.2392698 C90.6521739,45.219746 91.3447826,43.2777778 98.1521739,43.2777778 C104.921739,43.2777778 105.616957,45.1624762 105.653478,45.2887302 C105.654783,45.2913333 105.654783,45.2926349 105.654783,45.2952381 L106.562609,58.8968254 L89.7417391,58.8968254 L90.6495652,45.2952381 Z M87.4226087,60.8492063 L108.880435,60.8492063 C108.649565,64.4025397 106.982609,70.6111111 98.1508696,70.6111111 C89.3191304,70.6111111 87.6534783,64.4025397 87.4226087,60.8492063 Z M91.8978261,71.3217778 C93.6665217,72.1339683 95.763913,72.5634921 98.1521739,72.5634921 C100.540435,72.5634921 102.636522,72.1339683 104.406522,71.3217778 L103.180435,79.3968254 L93.1226087,79.3968254 L91.8978261,71.3217778 Z" id="Shape"></path>
                        <path d="M7.17391304,59.3849206 L12.3443478,59.3849206 L12.0756522,61.1954286 C12.0286957,61.5091111 12.1382609,61.8253968 12.3704348,62.0440635 C12.5543478,62.2197778 12.7956522,62.3134921 13.0447826,62.3134921 C13.1086957,62.3134921 13.1726087,62.3069841 13.2365217,62.2939683 L27.9104348,59.3653968 C28.4282609,59.2625714 28.7713043,58.7666667 28.683913,58.2486349 L22.8143478,23.1057778 C22.8104348,23.079746 22.8052174,23.0537143 22.7986957,23.0289841 C21.9821739,19.7672063 20.0308696,17.8968254 17.4469565,17.8968254 C14.7926087,17.8968254 12.7395652,19.8791429 12.086087,23.0706349 C12.0834783,23.0823492 12.0821739,23.0940635 12.0795652,23.1057778 L6.21,58.2486349 C6.16304348,58.5310794 6.2426087,58.8200317 6.42782609,59.0386984 C6.61304348,59.2586667 6.88565217,59.3849206 7.17391304,59.3849206 Z M14.0047826,23.4441905 C14.1847826,22.5773333 14.9517391,19.8492063 17.4456522,19.8492063 C19.5273913,19.8492063 20.4665217,21.8067937 20.8891304,23.4650159 L26.5956522,57.6368889 L14.2134783,60.1073016 L16.6186957,43.907746 C16.6982609,43.3753968 16.3278261,42.8781905 15.7943478,42.7987937 C15.746087,42.7922857 15.6978261,42.788381 15.6495652,42.788381 C15.1721739,42.788381 14.7547826,43.1372063 14.6830435,43.6226984 L12.633913,57.4312381 L8.32826087,57.4312381 L14.0047826,23.4441905 Z" id="Shape"></path>
                        <path d="M36.5217391,31.5634921 L77.6086957,31.5634921 C78.1486957,31.5634921 78.5869565,31.1261587 78.5869565,30.5873016 L78.5869565,1.3015873 C78.5869565,0.762730159 78.1486957,0.325396825 77.6086957,0.325396825 L36.5217391,0.325396825 C35.9817391,0.325396825 35.5434783,0.762730159 35.5434783,1.3015873 L35.5434783,30.5873016 C35.5434783,31.1261587 35.9817391,31.5634921 36.5217391,31.5634921 Z M37.5,2.27777778 L76.6304348,2.27777778 L76.6304348,29.6111111 L37.5,29.6111111 L37.5,2.27777778 Z" id="Shape"></path>
                        <path d="M60.6913043,9.39746032 C60.3091304,9.01609524 59.6895652,9.01609524 59.3073913,9.39746032 L47.5682609,21.111746 C47.186087,21.4931111 47.186087,22.1113651 47.5682609,22.4927302 C47.7586957,22.6827619 48.0091304,22.7790794 48.2595652,22.7790794 C48.51,22.7790794 48.7604348,22.6840635 48.9508696,22.4927302 L60.69,10.7784444 C61.0734783,10.3957778 61.0734783,9.7788254 60.6913043,9.39746032 Z" id="Shape"></path>
                        <path d="M65.1782609,12.3260317 L59.3086957,18.1831746 C58.9265217,18.5645397 58.9265217,19.1827937 59.3086957,19.5641587 C59.4991304,19.7541905 59.7495652,19.8505079 60,19.8505079 C60.2504348,19.8505079 60.5008696,19.7554921 60.6913043,19.5641587 L66.5608696,13.7070159 C66.9430435,13.3256508 66.9430435,12.7073968 66.5608696,12.3260317 C66.1786957,11.9446667 65.5604348,11.9446667 65.1782609,12.3260317 Z" id="Shape"></path>
                        <path d="M36.5217391,72.5634921 L77.6086957,72.5634921 C78.1486957,72.5634921 78.5869565,72.1261587 78.5869565,71.5873016 L78.5869565,42.3015873 C78.5869565,41.7627302 78.1486957,41.3253968 77.6086957,41.3253968 L58.0434783,41.3253968 L58.0434783,36.4444444 C58.0434783,35.9055873 57.6052174,35.468254 57.0652174,35.468254 C56.5252174,35.468254 56.0869565,35.9055873 56.0869565,36.4444444 L56.0869565,41.3253968 L36.5217391,41.3253968 C35.9817391,41.3253968 35.5434783,41.7627302 35.5434783,42.3015873 L35.5434783,71.5873016 C35.5434783,72.1261587 35.9817391,72.5634921 36.5217391,72.5634921 Z M37.5,52.0634921 L56.0869565,52.0634921 L56.0869565,70.6111111 L37.5,70.6111111 L37.5,52.0634921 Z M58.0434783,70.6111111 L58.0434783,52.0634921 L76.6304348,52.0634921 L76.6304348,70.6111111 L58.0434783,70.6111111 Z M76.6304348,43.2777778 L76.6304348,50.1111111 L37.5,50.1111111 L37.5,43.2777778 L76.6304348,43.2777778 Z" id="Shape"></path>
                        <path d="M62.2434783,56.2546032 C62.0608696,56.4368254 61.9565217,56.6880317 61.9565217,56.9444444 C61.9565217,57.2008571 62.0608696,57.4520635 62.2434783,57.6342857 C62.426087,57.8165079 62.6778261,57.9206349 62.9347826,57.9206349 C63.1917391,57.9206349 63.4434783,57.8165079 63.626087,57.6342857 C63.8086957,57.4520635 63.9130435,57.2008571 63.9130435,56.9444444 C63.9130435,56.6880317 63.8086957,56.4355238 63.626087,56.2546032 C63.2608696,55.8888571 62.606087,55.8927619 62.2434783,56.2546032 Z" id="Shape"></path>
                        <path d="M51.8869565,56.2546032 C51.5256522,55.8901587 50.8695652,55.8901587 50.5043478,56.2546032 C50.3217391,56.4368254 50.2173913,56.6880317 50.2173913,56.9444444 C50.2173913,57.2008571 50.3217391,57.4520635 50.5043478,57.6342857 C50.6869565,57.8165079 50.9386957,57.9206349 51.1956522,57.9206349 C51.4526087,57.9206349 51.7043478,57.8165079 51.8869565,57.6342857 C52.0695652,57.4520635 52.173913,57.2008571 52.173913,56.9444444 C52.173913,56.6880317 52.0695652,56.4355238 51.8869565,56.2546032 Z" id="Shape"></path>
                        <path d="M89.9882609,18.9914603 C90.09,19.4457143 90.4943478,19.7554921 90.9417391,19.7554921 C91.0095652,19.7554921 91.0773913,19.7476825 91.1452174,19.7333651 L91.3878261,20.8253968 L90.9782609,20.8253968 C90.693913,20.8253968 90.4226087,20.9490476 90.2373913,21.1638095 C90.0508696,21.379873 89.97,21.663619 90.0104348,21.9447619 L91.3147826,30.7304762 C91.3865217,31.2094603 91.7973913,31.5634921 92.2826087,31.5634921 L96.1956522,31.5634921 C96.6808696,31.5634921 97.0930435,31.2094603 97.1634783,30.7304762 L98.4678261,21.9447619 C98.5082609,21.663619 98.4273913,21.3785714 98.2408696,21.1638095 C98.0556522,20.9490476 97.7843478,20.8253968 97.5,20.8253968 L97.0030435,20.8253968 L97.6473913,16.482 C97.6747826,16.4885079 97.7021739,16.4989206 97.7308696,16.5028254 C97.7791304,16.5093333 97.8273913,16.5132381 97.8743478,16.5132381 C98.3504348,16.5132381 98.7691304,16.1644127 98.8408696,15.6789206 L99.1186957,13.8085397 C99.1982609,13.2748889 98.8278261,12.7789841 98.2930435,12.6995873 C98.223913,12.6904762 98.1573913,12.687873 98.0908696,12.6917778 C97.9734783,12.3611746 97.6865217,12.1034603 97.3147826,12.0487937 C96.7852174,11.9706984 96.2830435,12.3390476 96.2034783,12.8713968 L95.0256522,20.8253968 L93.393913,20.8253968 L92.2604348,15.7322857 C92.1430435,15.2064444 91.6186957,14.8745397 91.0930435,14.990381 C90.6286957,15.0932063 90.3156522,15.5084127 90.326087,15.9665714 C90.3234783,15.9665714 90.3208696,15.9665714 90.3182609,15.9665714 C89.79,16.0837143 89.4573913,16.6056508 89.5747826,17.1314921 L89.9882609,18.9914603 Z M95.3530435,29.6111111 L93.1265217,29.6111111 L92.1130435,22.7777778 L92.6073913,22.7777778 L92.6086957,22.7777778 C92.61,22.7777778 92.61,22.7777778 92.61,22.7777778 L95.8695652,22.7777778 C95.8708696,22.7777778 95.8708696,22.7777778 95.8721739,22.7777778 C95.8734783,22.7777778 95.8734783,22.7777778 95.8734783,22.7777778 L96.3678261,22.7777778 L95.3530435,29.6111111 Z" id="Shape"></path>
                    </g>
                </g>
            </g>
        </g>
    </g>
</svg>