<?xml version="1.0" encoding="UTF-8"?>
<svg width="120px" height="82px" viewBox="0 0 120 82" version="1.1" xmlns="http://www.w3.org/2000/svg" xmlns:xlink="http://www.w3.org/1999/xlink">
    <!-- Generator: Sketch 50.2 (55047) - http://www.bohemiancoding.com/sketch -->
    <title>bedroom-smart-devices</title>
    <desc>Created with Sketch.</desc>
    <defs>
        <linearGradient x1="100%" y1="0%" x2="0%" y2="100%" id="linearGradient-1">
            <stop stop-color="#2F60CE" offset="0%"></stop>
            <stop stop-color="#1E3E84" offset="98.3246026%"></stop>
        </linearGradient>
    </defs>
    <g id="Page-1" stroke="none" stroke-width="1" fill="none" fill-rule="evenodd">
        <g id="Desktop-HD" transform="translate(-660.000000, -799.000000)" fill="url(#linearGradient-1)" fill-rule="nonzero">
            <g id="Group-11" transform="translate(132.000000, 676.000000)">
                <g id="Group-5" transform="translate(480.000000, 82.000000)">
                    <g id="noun_bedroom_254086" transform="translate(48.000000, 41.000000)">
                        <path d="M118.695652,79.3968254 L107.934783,79.3968254 L107.934783,54.015873 C107.934783,53.4770159 107.496522,53.0396825 106.956522,53.0396825 L99.1304348,53.0396825 L99.1304348,46.2063492 L104.021739,46.2063492 C104.024348,46.2063492 104.026957,46.2063492 104.028261,46.2063492 C104.568261,46.2063492 105.006522,45.7690159 105.006522,45.2301587 C105.006522,45.1078095 104.984348,44.9906667 104.943913,44.8839365 L102.036522,33.2789841 C101.928261,32.844254 101.535652,32.5396825 101.086957,32.5396825 L89.3478261,32.5396825 C88.8991304,32.5396825 88.5065217,32.844254 88.3969565,33.2789841 L85.4621739,44.9932698 C85.3891304,45.2848254 85.4543478,45.5933016 85.6421739,45.8314921 C85.8273913,46.0696825 86.1117391,46.2063492 86.4130435,46.2063492 L91.3043478,46.2063492 L91.3043478,53.0396825 L83.4782609,53.0396825 C82.9382609,53.0396825 82.5,53.4770159 82.5,54.015873 L82.5,79.3968254 L69.7826087,79.3968254 L69.7826087,69.6349206 L74.673913,69.6349206 C75.213913,69.6349206 75.6521739,69.1975873 75.6521739,68.6587302 L75.6521739,54.015873 C75.6521739,53.4770159 75.213913,53.0396825 74.673913,53.0396825 L72.7173913,53.0396825 L72.7173913,39.3730159 C72.7173913,38.8341587 72.2791304,38.3968254 71.7391304,38.3968254 L15.9782609,38.3968254 C15.4382609,38.3968254 15,38.8341587 15,39.3730159 L15,53.0396825 L13.0434783,53.0396825 C12.5034783,53.0396825 12.0652174,53.4770159 12.0652174,54.015873 L12.0652174,68.6587302 C12.0652174,69.1975873 12.5034783,69.6349206 13.0434783,69.6349206 L17.9347826,69.6349206 L17.9347826,79.3968254 L1.30434783,79.3968254 C0.764347826,79.3968254 0.326086957,79.8341587 0.326086957,80.3730159 C0.326086957,80.911873 0.764347826,81.3492063 1.30434783,81.3492063 L118.695652,81.3492063 C119.235652,81.3492063 119.673913,80.911873 119.673913,80.3730159 C119.673913,79.8341587 119.235652,79.3968254 118.695652,79.3968254 Z M90.1121739,34.4920635 L100.322609,34.4920635 L102.768261,44.2539683 L87.6665217,44.2539683 L90.1121739,34.4920635 Z M93.2608696,46.2063492 L97.173913,46.2063492 L97.173913,53.0396825 L93.2608696,53.0396825 L93.2608696,46.2063492 Z M105.978261,54.9920635 L105.978261,64.7539683 L84.4565217,64.7539683 L84.4565217,54.9920635 L105.978261,54.9920635 Z M84.4565217,66.7063492 L105.978261,66.7063492 L105.978261,79.3968254 L84.4565217,79.3968254 L84.4565217,66.7063492 Z M16.9565217,40.3492063 L70.7608696,40.3492063 L70.7608696,53.0396825 L66.7930435,53.0396825 C66.1630435,47.187746 59.8447826,47.1825397 57.0652174,47.1825397 C54.2856522,47.1825397 47.9673913,47.187746 47.3373913,53.0396825 L40.38,53.0396825 C39.75,47.187746 33.4317391,47.1825397 30.6521739,47.1825397 C27.8726087,47.1825397 21.5543478,47.187746 20.9243478,53.0396825 L16.9565217,53.0396825 L16.9565217,40.3492063 Z M64.8169565,53.0396825 L49.3134783,53.0396825 C49.8704348,49.4577143 53.5747826,49.1349206 57.0652174,49.1349206 C60.5556522,49.1349206 64.2626087,49.4577143 64.8169565,53.0396825 Z M38.403913,53.0396825 L22.9004348,53.0396825 C23.4573913,49.4577143 27.1617391,49.1349206 30.6521739,49.1349206 C34.1426087,49.1349206 37.8482609,49.4577143 38.403913,53.0396825 Z M14.0217391,54.9920635 L73.6956522,54.9920635 L73.6956522,67.6825397 L14.0217391,67.6825397 L14.0217391,54.9920635 Z M19.8913043,69.6349206 L67.826087,69.6349206 L67.826087,79.3968254 L19.8913043,79.3968254 L19.8913043,69.6349206 Z" id="Shape"></path>
                        <path d="M95.2173913,60.8492063 C95.4743478,60.8492063 95.7273913,60.7450794 95.9073913,60.5628571 C96.0913043,60.3780317 96.1956522,60.1294286 96.1956522,59.8730159 C96.1956522,59.6166032 96.0913043,59.3640952 95.9073913,59.1831746 C95.5434783,58.8187302 94.8913043,58.8187302 94.5234783,59.1831746 C94.3408696,59.3653968 94.2365217,59.6166032 94.2365217,59.8730159 C94.2365217,60.1294286 94.3408696,60.3819365 94.5234783,60.5628571 C94.7073913,60.7450794 94.9604348,60.8492063 95.2173913,60.8492063 Z" id="Shape"></path>
                        <path d="M21.8478261,28.6349206 L65.8695652,28.6349206 C66.4095652,28.6349206 66.8478261,28.1975873 66.8478261,27.6587302 L66.8478261,1.3015873 C66.8478261,0.762730159 66.4095652,0.325396825 65.8695652,0.325396825 L21.8478261,0.325396825 C21.3078261,0.325396825 20.8695652,0.762730159 20.8695652,1.3015873 L20.8695652,27.6587302 C20.8695652,28.1975873 21.3078261,28.6349206 21.8478261,28.6349206 Z M22.826087,22.206381 L32.1195652,12.9325714 L45.8986957,26.6825397 L22.826087,26.6825397 L22.826087,22.206381 Z M64.8913043,2.27777778 L64.8913043,26.6825397 L48.6665217,26.6825397 L32.8108696,10.861746 C32.4286957,10.480381 31.8091304,10.480381 31.4269565,10.861746 L22.826087,19.4444127 L22.826087,2.27777778 L64.8913043,2.27777778 Z" id="Shape"></path>
                        <path d="M54.1304348,19.8492063 C57.9065217,19.8492063 60.9782609,16.7839683 60.9782609,13.015873 C60.9782609,9.24777778 57.9065217,6.18253968 54.1304348,6.18253968 C50.3543478,6.18253968 47.2826087,9.24777778 47.2826087,13.015873 C47.2826087,16.7839683 50.3543478,19.8492063 54.1304348,19.8492063 Z M54.1304348,8.13492063 C56.8278261,8.13492063 59.0217391,10.3241905 59.0217391,13.015873 C59.0217391,15.7075556 56.8278261,17.8968254 54.1304348,17.8968254 C51.4330435,17.8968254 49.2391304,15.7075556 49.2391304,13.015873 C49.2391304,10.3241905 51.4330435,8.13492063 54.1304348,8.13492063 Z" id="Shape"></path>
                    </g>
                </g>
            </g>
        </g>
    </g>
</svg>