<?xml version="1.0" encoding="UTF-8"?>
<svg width="120px" height="82px" viewBox="0 0 120 82" version="1.1" xmlns="http://www.w3.org/2000/svg" xmlns:xlink="http://www.w3.org/1999/xlink">
    <!-- Generator: Sketch 50.2 (55047) - http://www.bohemiancoding.com/sketch -->
    <title>kitchen-smart-devices</title>
    <desc>Created with Sketch.</desc>
    <defs>
        <linearGradient x1="100%" y1="0%" x2="0%" y2="100%" id="linearGradient-1">
            <stop stop-color="#2F60CE" offset="0%"></stop>
            <stop stop-color="#1E3E84" offset="98.3246026%"></stop>
        </linearGradient>
    </defs>
    <g id="Page-1" stroke="none" stroke-width="1" fill="none" fill-rule="evenodd">
        <g id="Desktop-HD" transform="translate(-420.000000, -799.000000)" fill="url(#linearGradient-1)" fill-rule="nonzero">
            <g id="Group-11" transform="translate(132.000000, 676.000000)">
                <g id="Group-3" transform="translate(240.000000, 82.000000)">
                    <g id="noun_Kitchen_254090" transform="translate(48.000000, 41.000000)">
                        <path d="M118.695652,79.3968254 L110.869565,79.3968254 L110.869565,1.3015873 C110.869565,0.762730159 110.431304,0.325396825 109.891304,0.325396825 L80.5434783,0.325396825 C80.0034783,0.325396825 79.5652174,0.762730159 79.5652174,1.3015873 L79.5652174,44.2539683 L46.3043478,44.2539683 L46.3043478,40.1852063 L54.3091304,38.704 C54.84,38.6076825 55.1908696,38.0961587 55.0930435,37.5677143 C54.9952174,37.0379683 54.483913,36.6878413 53.9530435,36.7841587 L46.3043478,38.2015873 L46.3043478,37.7460317 C46.3043478,37.2071746 45.866087,36.7698413 45.326087,36.7698413 L33.5869565,36.7698413 C33.0469565,36.7698413 32.6086957,37.2071746 32.6086957,37.7460317 L32.6086957,44.2539683 L10.1086957,44.2539683 C9.56869565,44.2539683 9.13043478,44.6913016 9.13043478,45.2301587 L9.13043478,79.3968254 L1.30434783,79.3968254 C0.764347826,79.3968254 0.326086957,79.8341587 0.326086957,80.3730159 C0.326086957,80.911873 0.764347826,81.3492063 1.30434783,81.3492063 L118.695652,81.3492063 C119.235652,81.3492063 119.673913,80.911873 119.673913,80.3730159 C119.673913,79.8341587 119.235652,79.3968254 118.695652,79.3968254 Z M81.5217391,46.2063492 L108.913043,46.2063492 L108.913043,79.3968254 L81.5217391,79.3968254 L81.5217391,46.2063492 Z M108.913043,2.27777778 L108.913043,44.2539683 L81.5217391,44.2539683 L81.5217391,2.27777778 L108.913043,2.27777778 Z M79.5652174,73.5396825 L60.9782609,73.5396825 L60.9782609,46.2063492 L79.5652174,46.2063492 L79.5652174,73.5396825 Z M31.6304348,73.5396825 L31.6304348,57.9206349 L59.0217391,57.9206349 L59.0217391,73.5396825 L31.6304348,73.5396825 Z M33.5869565,46.2063492 L45.326087,46.2063492 L59.0217391,46.2063492 L59.0217391,55.968254 L31.6304348,55.968254 L31.6304348,46.2063492 L33.5869565,46.2063492 Z M34.5652174,38.7222222 L44.3478261,38.7222222 L44.3478261,44.2539683 L34.5652174,44.2539683 L34.5652174,38.7222222 Z M29.673913,46.2063492 L29.673913,73.5396825 L11.0869565,73.5396825 L11.0869565,46.2063492 L29.673913,46.2063492 Z M11.0869565,75.4920635 L79.5652174,75.4920635 L79.5652174,79.3968254 L11.0869565,79.3968254 L11.0869565,75.4920635 Z" id="Shape"></path>
                        <path d="M86.4130435,40.3492063 C86.9530435,40.3492063 87.3913043,39.911873 87.3913043,39.3730159 L87.3913043,30.5873016 C87.3913043,30.0484444 86.9530435,29.6111111 86.4130435,29.6111111 C85.8730435,29.6111111 85.4347826,30.0484444 85.4347826,30.5873016 L85.4347826,39.3730159 C85.4347826,39.911873 85.8730435,40.3492063 86.4130435,40.3492063 Z" id="Shape"></path>
                        <path d="M86.4130435,50.1111111 C85.8730435,50.1111111 85.4347826,50.5484444 85.4347826,51.0873016 L85.4347826,59.8730159 C85.4347826,60.411873 85.8730435,60.8492063 86.4130435,60.8492063 C86.9530435,60.8492063 87.3913043,60.411873 87.3913043,59.8730159 L87.3913043,51.0873016 C87.3913043,50.5484444 86.9530435,50.1111111 86.4130435,50.1111111 Z" id="Shape"></path>
                        <path d="M30.6521739,25.7063492 L60,25.7063492 C60.54,25.7063492 60.9782609,25.2690159 60.9782609,24.7301587 L60.9782609,18.8730159 C60.9782609,18.3341587 60.54,17.8968254 60,17.8968254 L52.173913,17.8968254 L52.173913,1.3015873 C52.173913,0.762730159 51.7356522,0.325396825 51.1956522,0.325396825 L39.4565217,0.325396825 C38.9165217,0.325396825 38.4782609,0.762730159 38.4782609,1.3015873 L38.4782609,17.8968254 L30.6521739,17.8968254 C30.1121739,17.8968254 29.673913,18.3341587 29.673913,18.8730159 L29.673913,24.7301587 C29.673913,25.2690159 30.1121739,25.7063492 30.6521739,25.7063492 Z M40.4347826,2.27777778 L50.2173913,2.27777778 L50.2173913,17.8968254 L40.4347826,17.8968254 L40.4347826,2.27777778 Z M31.6304348,19.8492063 L59.0217391,19.8492063 L59.0217391,23.7539683 L31.6304348,23.7539683 L31.6304348,19.8492063 Z" id="Shape"></path>
                        <path d="M65.1795652,51.7771429 C65.3595652,51.9593651 65.6126087,52.0634921 65.8695652,52.0634921 C66.1265217,52.0634921 66.3795652,51.9593651 66.5595652,51.7771429 C66.7434783,51.5923175 66.8478261,51.3437143 66.8478261,51.0873016 C66.8478261,50.8308889 66.7434783,50.578381 66.5595652,50.3974603 C66.1956522,50.0330159 65.5408696,50.0330159 65.1756522,50.3974603 C64.9930435,50.5796825 64.8886957,50.8308889 64.8886957,51.0873016 C64.8886957,51.3437143 64.9956522,51.5962222 65.1795652,51.7771429 Z" id="Shape"></path>
                        <path d="M24.7826087,52.0634921 C25.0395652,52.0634921 25.2913043,51.9593651 25.473913,51.7771429 C25.6565217,51.5923175 25.7608696,51.3437143 25.7608696,51.0873016 C25.7608696,50.8308889 25.6565217,50.578381 25.473913,50.3974603 C25.1126087,50.0330159 24.4565217,50.0330159 24.0913043,50.3974603 C23.9086957,50.5796825 23.8043478,50.8308889 23.8043478,51.0873016 C23.8043478,51.3437143 23.9086957,51.5962222 24.0913043,51.7771429 C24.273913,51.9593651 24.5256522,52.0634921 24.7826087,52.0634921 Z" id="Shape"></path>
                        <path d="M39.4565217,52.0634921 L51.1956522,52.0634921 C51.7356522,52.0634921 52.173913,51.6261587 52.173913,51.0873016 C52.173913,50.5484444 51.7356522,50.1111111 51.1956522,50.1111111 L39.4565217,50.1111111 C38.9165217,50.1111111 38.4782609,50.5484444 38.4782609,51.0873016 C38.4782609,51.6261587 38.9165217,52.0634921 39.4565217,52.0634921 Z" id="Shape"></path>
                        <path d="M51.2347826,63.4133333 C50.8526087,63.0319683 50.2330435,63.0319683 49.8508696,63.4133333 L46.263913,66.9926984 C45.8817391,67.3753651 45.8817391,67.993619 46.263913,68.3749841 C46.4543478,68.5650159 46.7047826,68.6613333 46.9552174,68.6613333 C47.2056522,68.6613333 47.456087,68.5663175 47.6465217,68.3749841 L51.2334783,64.795619 C51.6169565,64.4103492 51.6169565,63.796 51.2347826,63.4133333 Z" id="Shape"></path>
                        <path d="M46.6695652,62.111746 C46.2873913,61.730381 45.6678261,61.730381 45.2856522,62.111746 L39.416087,67.9688889 C39.033913,68.3515556 39.033913,68.9698095 39.416087,69.3511746 C39.6065217,69.5412063 39.8569565,69.6375238 40.1073913,69.6375238 C40.3578261,69.6375238 40.6082609,69.5425079 40.7986957,69.3511746 L46.6682609,63.4940317 C47.0517391,63.1087619 47.0517391,62.4944127 46.6695652,62.111746 Z" id="Shape"></path>
                    </g>
                </g>
            </g>
        </g>
    </g>
</svg>