<?xml version="1.0" encoding="UTF-8"?>
<svg width="120px" height="82px" viewBox="0 0 120 82" version="1.1" xmlns="http://www.w3.org/2000/svg" xmlns:xlink="http://www.w3.org/1999/xlink">
    <!-- Generator: Sketch 50.2 (55047) - http://www.bohemiancoding.com/sketch -->
    <title>living-room-smart-devices</title>
    <desc>Created with Sketch.</desc>
    <defs>
        <linearGradient x1="100%" y1="0%" x2="0%" y2="100%" id="linearGradient-1">
            <stop stop-color="#2F60CE" offset="0%"></stop>
            <stop stop-color="#1E3E84" offset="98.3246026%"></stop>
        </linearGradient>
    </defs>
    <g id="Page-1" stroke="none" stroke-width="1" fill="none" fill-rule="evenodd">
        <g id="Desktop-HD" transform="translate(-180.000000, -799.000000)" fill="url(#linearGradient-1)" fill-rule="nonzero">
            <g id="Group-11" transform="translate(132.000000, 676.000000)">
                <g id="Group-4" transform="translate(0.000000, 82.000000)">
                    <g id="noun_living-room_254087" transform="translate(48.000000, 41.000000)">
                        <path d="M118.695652,79.3955238 L105,79.3955238 L105,25.7050476 L112.826087,25.7050476 C112.828696,25.7050476 112.831304,25.7050476 112.832609,25.7050476 C113.372609,25.7050476 113.81087,25.2677143 113.81087,24.7288571 C113.81087,24.6065079 113.788696,24.4906667 113.748261,24.3826349 L110.84087,12.7776825 C110.731304,12.3429524 110.337391,12.038381 109.89,12.038381 L98.1508696,12.038381 C97.7008696,12.038381 97.3082609,12.3429524 97.2,12.7776825 L94.2652174,24.4919683 C94.1921739,24.7835238 94.2573913,25.092 94.4465217,25.3288889 C94.6317391,25.5670794 94.9147826,25.7050476 95.2173913,25.7050476 L103.043478,25.7050476 L103.043478,79.3955238 L93.2608696,79.3955238 L93.2608696,75.4907619 L95.2173913,75.4907619 C95.7573913,75.4907619 96.1956522,75.0534286 96.1956522,74.5145714 L96.1956522,56.9431429 C96.1956522,56.4042857 95.7573913,55.9669524 95.2173913,55.9669524 L90.326087,55.9669524 L90.326087,51.086 C90.326087,48.9331746 88.5704348,47.1812381 86.4130435,47.1812381 L68.8043478,47.1812381 C67.6356522,47.1812381 66.5882609,47.6966667 65.8695652,48.5101587 C65.1508696,47.6966667 64.1034783,47.1812381 62.9347826,47.1812381 L45.326087,47.1812381 C43.1686957,47.1812381 41.4130435,48.9331746 41.4130435,51.086 L41.4130435,55.9669524 L36.5217391,55.9669524 C35.9817391,55.9669524 35.5434783,56.4042857 35.5434783,56.9431429 L35.5434783,74.5145714 C35.5434783,75.0534286 35.9817391,75.4907619 36.5217391,75.4907619 L38.4782609,75.4907619 L38.4782609,79.3955238 L28.1230435,79.3955238 L19.8913043,71.1812063 L19.8913043,63.7764762 L23.1286957,63.7764762 L27.7173913,63.7764762 C28.2573913,63.7764762 28.6956522,63.3391429 28.6956522,62.8002857 C28.6956522,62.2614286 28.2573913,61.8240952 27.7173913,61.8240952 L24.3052174,61.8240952 L25.7217391,54.1928889 C25.7752174,53.9078413 25.6969565,53.6136825 25.5117391,53.3924127 C25.3265217,53.1685397 25.05,53.0396825 24.7604348,53.0396825 L21.6130435,53.0396825 L22.6604348,43.5367937 C22.9421739,43.6044762 23.2317391,43.6435238 23.5226087,43.6435238 C24.843913,43.6435238 26.073913,42.9328571 26.7326087,41.7939683 C28.953913,37.9568889 27.9221739,33.9740317 27.8765217,33.806127 C27.7369565,33.2867937 27.1995652,32.9770159 26.6791304,33.1149841 C26.5108696,33.1605397 22.5404348,34.2616825 20.3191304,38.1000635 C19.4882609,39.5370159 19.7373913,41.3032698 20.8121739,42.4616825 L19.6434783,53.0396825 L18.1552174,53.0396825 L16.9708696,39.6320317 C17.8421739,38.9968571 18.4669565,38.092254 18.7513043,37.0379683 C19.0786957,35.8157778 18.9117391,34.5363175 18.2765217,33.4377778 C15.2791304,28.2587619 9.92478261,26.776254 9.69782609,26.7137778 C9.4473913,26.6473968 9.18,26.6825397 8.95565217,26.8113968 C8.73130435,26.9415556 8.56695652,27.1537143 8.50043478,27.403619 C8.44043478,27.6300952 7.04869565,32.9965397 10.0473913,38.1794603 C10.8926087,39.6424444 12.4708696,40.5496508 14.1652174,40.5496508 C14.4730435,40.5496508 14.7795652,40.5197143 15.0808696,40.4611429 L16.1921739,53.0370794 L13.0213043,53.0370794 C12.7304348,53.0370794 12.453913,53.1698413 12.2686957,53.3898095 C12.0821739,53.6136825 12.0052174,53.9052381 12.0586957,54.1902857 L13.4752174,61.8214921 L10.1086957,61.8214921 C9.56869565,61.8214921 9.13043478,62.2588254 9.13043478,62.7976825 C9.13043478,63.3365397 9.56869565,63.7777778 10.1086957,63.7777778 L14.6504348,63.7777778 L17.9347826,63.7777778 L17.9347826,71.1812063 L9.70304348,79.3968254 L1.30434783,79.3968254 C0.764347826,79.3968254 0.326086957,79.8341587 0.326086957,80.3730159 C0.326086957,80.911873 0.764347826,81.3492063 1.30434783,81.3492063 L118.695652,81.3492063 C119.235652,81.3492063 119.673913,80.911873 119.673913,80.3730159 C119.673913,79.8341587 119.235652,79.3955238 118.695652,79.3955238 Z M98.9165217,13.9907619 L109.126957,13.9907619 L111.572609,23.7526667 L96.4708696,23.7526667 L98.9165217,13.9907619 Z M22.0108696,39.0749524 C23.1873913,37.041873 25.0134783,35.9329206 26.1508696,35.4057778 C26.2617391,36.6553016 26.2121739,38.7873016 25.0369565,40.8190794 C24.7252174,41.3579365 24.1447826,41.6911429 23.5213043,41.6911429 C23.2173913,41.6911429 22.916087,41.6104444 22.65,41.4568571 C21.8178261,40.9752698 21.5308696,39.9079683 22.0108696,39.0749524 Z M11.7404348,37.2032698 C9.88826087,34.0013651 9.99130435,30.6328571 10.2026087,28.9694286 C11.7534783,29.6189206 14.7286957,31.2146667 16.5808696,34.4152698 C16.953913,35.0608571 17.0530435,35.8131746 16.86,36.5329524 C16.6669565,37.2540317 16.2052174,37.8553651 15.5569565,38.227619 C15.1317391,38.4723175 14.6504348,38.6011746 14.163913,38.6011746 C13.1673913,38.5985714 12.2386957,38.0649206 11.7404348,37.2032698 Z M14.1965217,54.9907619 L23.583913,54.9907619 L22.316087,61.8240952 L15.4656522,61.8240952 L14.1965217,54.9907619 Z M64.8913043,67.6812381 L43.3695652,67.6812381 L43.3695652,63.7764762 L64.8913043,63.7764762 L64.8913043,67.6812381 Z M66.8478261,63.7764762 L88.3695652,63.7764762 L88.3695652,67.6812381 L66.8478261,67.6812381 L66.8478261,63.7764762 Z M68.8043478,49.133619 L86.4130435,49.133619 C87.4917391,49.133619 88.3695652,50.0095873 88.3695652,51.086 L88.3695652,61.8240952 L66.8478261,61.8240952 L66.8478261,51.086 C66.8478261,50.0095873 67.7256522,49.133619 68.8043478,49.133619 Z M43.3695652,51.086 C43.3695652,50.0095873 44.2473913,49.133619 45.326087,49.133619 L62.9347826,49.133619 C64.0134783,49.133619 64.8913043,50.0095873 64.8913043,51.086 L64.8913043,61.8240952 L43.3695652,61.8240952 L43.3695652,51.086 Z M37.5,57.9193333 L41.4130435,57.9193333 L41.4130435,68.6574286 C41.4130435,69.1962857 41.8513043,69.633619 42.3913043,69.633619 L65.8695652,69.633619 L89.3478261,69.633619 C89.8878261,69.633619 90.326087,69.1962857 90.326087,68.6574286 L90.326087,57.9193333 L94.2391304,57.9193333 L94.2391304,73.538381 L37.5,73.538381 L37.5,57.9193333 Z M40.4347826,75.4907619 L91.3043478,75.4907619 L91.3043478,79.3955238 L40.4347826,79.3955238 L40.4347826,75.4907619 Z M25.3552174,79.3955238 L19.8913043,79.3955238 L19.8913043,73.9431746 L25.3552174,79.3955238 Z M17.9347826,73.9431746 L17.9347826,79.3955238 L12.4708696,79.3955238 L17.9347826,73.9431746 Z" id="Shape"></path>
                        <path d="M24.7826087,22.7764762 L42.3913043,22.7764762 C42.9313043,22.7764762 43.3695652,22.3391429 43.3695652,21.8002857 L43.3695652,1.30028571 C43.3695652,0.761428571 42.9313043,0.324095238 42.3913043,0.324095238 L34.2782609,0.324095238 L24.7826087,0.324095238 C24.2426087,0.324095238 23.8043478,0.761428571 23.8043478,1.30028571 L23.8043478,15.4407302 L23.8043478,21.8002857 C23.8043478,22.3391429 24.2426087,22.7764762 24.7826087,22.7764762 Z M41.4130435,20.8240952 L25.7608696,20.8240952 L25.7608696,16.7149841 C26.4026087,16.8451429 27.056087,16.9193333 27.7173913,16.9193333 C33.1121739,16.9193333 37.5,12.5407937 37.5,7.15742857 C37.5,5.42892063 37.0395652,3.74987302 36.1865217,2.27647619 L41.4130435,2.27647619 L41.4130435,20.8240952 Z M25.7608696,2.27647619 L33.8256522,2.27647619 C34.9369565,3.6587619 35.5434783,5.37555556 35.5434783,7.15742857 C35.5434783,11.464381 32.0334783,14.9669524 27.7173913,14.9669524 C27.0534783,14.9669524 26.3986957,14.8836508 25.7608696,14.7209524 L25.7608696,2.27647619 Z" id="Shape"></path>
                        <path d="M48.2608696,34.4907619 L83.4782609,34.4907619 C84.0182609,34.4907619 84.4565217,34.0534286 84.4565217,33.5145714 L84.4565217,7.15742857 C84.4565217,6.61857143 84.0182609,6.1812381 83.4782609,6.1812381 L48.2608696,6.1812381 C47.7208696,6.1812381 47.2826087,6.61857143 47.2826087,7.15742857 L47.2826087,33.5145714 C47.2826087,34.0534286 47.7208696,34.4907619 48.2608696,34.4907619 Z M49.2391304,25.1336508 L54.1304348,20.2526984 L66.4421739,32.538381 L49.2391304,32.538381 L49.2391304,25.1336508 Z M82.5,8.13361905 L82.5,32.538381 L69.21,32.538381 L54.8217391,18.181873 C54.4395652,17.8005079 53.82,17.8005079 53.4378261,18.181873 L49.2391304,22.3716825 L49.2391304,8.13361905 L82.5,8.13361905 Z" id="Shape"></path>
                        <path d="M71.7934783,25.596582 C75.5395963,25.596582 78.5869565,22.5556712 78.5869565,18.8174815 C78.5869565,15.0792918 75.5395963,12.038381 71.7934783,12.038381 C68.0473602,12.038381 65,15.0792918 65,18.8174815 C65,22.5556712 68.0473602,25.596582 71.7934783,25.596582 Z M71.7934783,13.9752668 C74.4694617,13.9752668 76.6459627,16.1471615 76.6459627,18.8174815 C76.6459627,21.4878015 74.4694617,23.6596961 71.7934783,23.6596961 C69.1174948,23.6596961 66.9409938,21.4878015 66.9409938,18.8174815 C66.9409938,16.1471615 69.1174948,13.9752668 71.7934783,13.9752668 Z" id="Shape"></path>
                    </g>
                </g>
            </g>
        </g>
    </g>
</svg>