<?xml version="1.0" encoding="UTF-8"?>
<svg width="120px" height="85px" viewBox="0 0 120 85" version="1.1" xmlns="http://www.w3.org/2000/svg" xmlns:xlink="http://www.w3.org/1999/xlink">
    <!-- Generator: Sketch 50.2 (55047) - http://www.bohemiancoding.com/sketch -->
    <title>office-smart-devices</title>
    <desc>Created with Sketch.</desc>
    <defs>
        <linearGradient x1="100%" y1="0%" x2="0%" y2="100%" id="linearGradient-1">
            <stop stop-color="#2F60CE" offset="0%"></stop>
            <stop stop-color="#1E3E84" offset="98.3246026%"></stop>
        </linearGradient>
    </defs>
    <g id="Page-1" stroke="none" stroke-width="1" fill="none" fill-rule="evenodd">
        <g id="Desktop-HD" transform="translate(-1140.000000, -796.000000)" fill="url(#linearGradient-1)" fill-rule="nonzero">
            <g id="Group-11" transform="translate(132.000000, 676.000000)">
                <g id="Group-7" transform="translate(960.000000, 82.000000)">
                    <g id="noun_workspace_254088" transform="translate(48.000000, 38.000000)">
                        <path d="M118.695652,82.3846154 L105,82.3846154 L105,48.0576923 C105,47.5163077 104.561739,47.0769231 104.021739,47.0769231 L78.5869565,47.0769231 L78.5869565,40.2115385 L92.2826087,40.2115385 C92.8226087,40.2115385 93.2608696,39.7721538 93.2608696,39.2307692 L93.2608696,9.80769231 C93.2608696,9.26630769 92.8226087,8.82692308 92.2826087,8.82692308 L51.1956522,8.82692308 C50.6556522,8.82692308 50.2173913,9.26630769 50.2173913,9.80769231 L50.2173913,39.2307692 C50.2173913,39.7721538 50.6556522,40.2115385 51.1956522,40.2115385 L64.8913043,40.2115385 L64.8913043,47.0769231 L34.5652174,47.0769231 L34.5652174,46.0346923 C34.7804348,46.07 34.9969565,46.0961538 35.2173913,46.0961538 C37.3747826,46.0961538 39.1304348,44.336 39.1304348,42.1730769 C39.1304348,40.0101538 37.3747826,38.25 35.2173913,38.25 C34.9969565,38.25 34.7804348,38.2748462 34.5652174,38.3114615 L34.5652174,36.2884615 C34.5652174,35.7470769 34.1269565,35.3076923 33.5869565,35.3076923 L24.7826087,35.3076923 C24.2426087,35.3076923 23.8043478,35.7470769 23.8043478,36.2884615 L23.8043478,47.0769231 L15.9782609,47.0769231 C15.4382609,47.0769231 15,47.5163077 15,48.0576923 L15,82.3846154 L1.30434783,82.3846154 C0.764347826,82.3846154 0.326086957,82.824 0.326086957,83.3653846 C0.326086957,83.9067692 0.764347826,84.3461538 1.30434783,84.3461538 L118.695652,84.3461538 C119.235652,84.3461538 119.673913,83.9067692 119.673913,83.3653846 C119.673913,82.824 119.235652,82.3846154 118.695652,82.3846154 Z M103.043478,82.3846154 L84.4565217,82.3846154 L84.4565217,77.4807692 C84.4565217,77.0309231 84.1513043,76.6373077 83.7156522,76.5274615 L72.7173913,73.7721538 L72.7173913,63.75 L83.4782609,63.75 C84.0182609,63.75 84.4565217,63.3053846 84.4565217,62.764 L84.4565217,59.8269231 C84.4565217,55.9038462 78.2791304,55.9038462 71.7391304,55.9038462 C65.1991304,55.9038462 59.0217391,55.9038462 59.0217391,59.8269231 L59.0217391,62.7692308 C59.0217391,63.3106154 59.46,63.75 60,63.75 L70.7608696,63.75 L70.7608696,73.7721538 L59.7626087,76.5274615 C59.3269565,76.6373077 59.0217391,77.0309231 59.0217391,77.4807692 L59.0217391,82.3846154 L40.4347826,82.3846154 L40.4347826,49.0384615 L103.043478,49.0384615 L103.043478,82.3846154 Z M60.9782609,61.7884615 L60.9782609,59.8269231 C60.9782609,57.8653846 67.2,57.8653846 71.7391304,57.8653846 C76.2782609,57.8653846 82.5,57.8653846 82.5,59.8269231 L82.5,61.7884615 L60.9782609,61.7884615 Z M70.7608696,82.3846154 L60.9782609,82.3846154 L60.9782609,78.2470769 L70.7608696,75.7951538 L70.7608696,82.3846154 Z M72.7173913,75.7951538 L82.5,78.2470769 L82.5,82.3846154 L72.7173913,82.3846154 L72.7173913,75.7951538 Z M16.9565217,60.8076923 L38.4782609,60.8076923 L38.4782609,70.6153846 L16.9565217,70.6153846 L16.9565217,60.8076923 Z M91.3043478,10.7884615 L91.3043478,32.3653846 L52.173913,32.3653846 L52.173913,10.7884615 L91.3043478,10.7884615 Z M52.173913,34.3269231 L91.3043478,34.3269231 L91.3043478,38.25 L52.173913,38.25 L52.173913,34.3269231 Z M66.8478261,40.2115385 L76.6304348,40.2115385 L76.6304348,47.0769231 L66.8478261,47.0769231 L66.8478261,40.2115385 Z M35.2173913,40.2115385 C36.296087,40.2115385 37.173913,41.0916154 37.173913,42.1730769 C37.173913,43.2545385 36.296087,44.1346154 35.2173913,44.1346154 C34.9930435,44.1346154 34.7752174,44.0966923 34.5652174,44.0195385 L34.5652174,40.3253077 C34.7752174,40.2494615 34.9943478,40.2115385 35.2173913,40.2115385 Z M25.7608696,37.2692308 L32.6086957,37.2692308 L32.6086957,47.0769231 L25.7608696,47.0769231 L25.7608696,37.2692308 Z M24.7826087,49.0384615 L33.5869565,49.0384615 L38.4782609,49.0384615 L38.4782609,58.8461538 L16.9565217,58.8461538 L16.9565217,49.0384615 L24.7826087,49.0384615 Z M16.9565217,72.5769231 L38.4782609,72.5769231 L38.4782609,82.3846154 L16.9565217,82.3846154 L16.9565217,72.5769231 Z" id="Shape"></path>
                        <path d="M27.7173913,54.9230769 C27.9743478,54.9230769 28.226087,54.8184615 28.4086957,54.6353846 C28.5913043,54.4523077 28.6956522,54.1999231 28.6956522,53.9423077 C28.6956522,53.6846923 28.5913043,53.431 28.4086957,53.2492308 C28.0434783,52.8830769 27.3913043,52.8830769 27.026087,53.2492308 C26.8434783,53.4323077 26.7391304,53.6846923 26.7391304,53.9423077 C26.7391304,54.1999231 26.8434783,54.4536154 27.026087,54.6353846 C27.2086957,54.8184615 27.4604348,54.9230769 27.7173913,54.9230769 Z" id="Shape"></path>
                        <path d="M28.4086957,65.0184615 C28.0434783,64.6523077 27.3913043,64.6523077 27.026087,65.0184615 C26.8434783,65.2015385 26.7391304,65.4539231 26.7391304,65.7115385 C26.7391304,65.9691538 26.8434783,66.2228462 27.026087,66.4046154 C27.2086957,66.5876923 27.4604348,66.6923077 27.7173913,66.6923077 C27.9743478,66.6923077 28.226087,66.5876923 28.4086957,66.4046154 C28.5913043,66.2215385 28.6956522,65.9691538 28.6956522,65.7115385 C28.6956522,65.4539231 28.5913043,65.2002308 28.4086957,65.0184615 Z" id="Shape"></path>
                        <path d="M28.4086957,76.7876923 C28.0434783,76.4215385 27.3886957,76.4215385 27.026087,76.7876923 C26.8434783,76.9707692 26.7391304,77.2231538 26.7391304,77.4807692 C26.7391304,77.7383846 26.8434783,77.9920769 27.026087,78.1738462 C27.2086957,78.3569231 27.4604348,78.4615385 27.7173913,78.4615385 C27.9743478,78.4615385 28.226087,78.3569231 28.4086957,78.1738462 C28.5913043,77.9907692 28.6956522,77.7383846 28.6956522,77.4807692 C28.6956522,77.2231538 28.5913043,76.9694615 28.4086957,76.7876923 Z" id="Shape"></path>
                        <path d="M62.9347826,28.4423077 C63.183913,28.4423077 63.4356522,28.3468462 63.6247826,28.1546154 L75.363913,16.3853846 C75.7473913,16.0022308 75.7473913,15.3810769 75.363913,14.9966154 C74.9817391,14.6134615 74.3621739,14.6134615 73.98,14.9966154 L62.2408696,26.7658462 C61.8586957,27.149 61.8586957,27.7701538 62.2408696,28.1546154 C62.433913,28.3468462 62.6856522,28.4423077 62.9347826,28.4423077 Z" id="Shape"></path>
                        <path d="M73.983913,25.2123077 C74.1743478,25.4032308 74.4247826,25.5 74.673913,25.5 C74.9230435,25.5 75.1747826,25.4045385 75.363913,25.2123077 L81.2334783,19.3276923 C81.6169565,18.9445385 81.6169565,18.3233846 81.2334783,17.9389231 C80.8513043,17.5557692 80.2317391,17.5557692 79.8495652,17.9389231 L73.98,23.8235385 C73.6004348,24.2093077 73.6004348,24.8291538 73.983913,25.2123077 Z" id="Shape"></path>
                        <path d="M15.9782609,25.5 L39.4565217,25.5 C39.9965217,25.5 40.4347826,25.0606154 40.4347826,24.5192308 L40.4347826,3.92307692 C40.4347826,3.38169231 39.9965217,2.94230769 39.4565217,2.94230769 L36.5217391,2.94230769 L36.5217391,0.980769231 C36.5217391,0.439384615 36.0834783,0 35.5434783,0 C35.0034783,0 34.5652174,0.439384615 34.5652174,0.980769231 L34.5652174,2.94230769 L20.8695652,2.94230769 L20.8695652,0.980769231 C20.8695652,0.439384615 20.4313043,0 19.8913043,0 C19.3513043,0 18.9130435,0.439384615 18.9130435,0.980769231 L18.9130435,2.94230769 L15.9782609,2.94230769 C15.4382609,2.94230769 15,3.38169231 15,3.92307692 L15,24.5192308 C15,25.0606154 15.4382609,25.5 15.9782609,25.5 Z M16.9565217,23.5384615 L16.9565217,10.7884615 L38.4782609,10.7884615 L38.4782609,23.5384615 L16.9565217,23.5384615 Z M18.9130435,4.90384615 L18.9130435,6.86538462 C18.9130435,7.40676923 19.3513043,7.84615385 19.8913043,7.84615385 C20.4313043,7.84615385 20.8695652,7.40676923 20.8695652,6.86538462 L20.8695652,4.90384615 L34.5652174,4.90384615 L34.5652174,6.86538462 C34.5652174,7.40676923 35.0034783,7.84615385 35.5434783,7.84615385 C36.0834783,7.84615385 36.5217391,7.40676923 36.5217391,6.86538462 L36.5217391,4.90384615 L38.4782609,4.90384615 L38.4782609,8.82692308 L16.9565217,8.82692308 L16.9565217,4.90384615 L18.9130435,4.90384615 Z" id="Shape"></path>
                    </g>
                </g>
            </g>
        </g>
    </g>
</svg>