<?xml version="1.0" encoding="UTF-8"?>
<svg width="135px" height="26px" viewBox="0 0 135 26" version="1.1" xmlns="http://www.w3.org/2000/svg" xmlns:xlink="http://www.w3.org/1999/xlink">
    <!-- Generator: Sketch 50.2 (55047) - http://www.bohemiancoding.com/sketch -->
    <title>Desktop HD</title>
    <desc>Created with Sketch.</desc>
    <defs></defs>
    <g id="Page-1" stroke="none" stroke-width="1" fill="none" fill-rule="evenodd">
        <g id="Desktop-HD" transform="translate(-132.000000, -1679.000000)" fill="#FFFFFF">
            <path d="M132.238,1689.016 L132.238,1686.52 L134.422,1686.52 L134.422,1682.906 L137.49,1682.906 L137.49,1686.52 L140.61,1686.52 L140.61,1689.016 L137.49,1689.016 L137.49,1694.814 C137.49,1695.36867 137.589666,1695.828 137.789,1696.192 C137.988334,1696.556 138.434663,1696.738 139.128,1696.738 C139.336001,1696.738 139.561332,1696.71633 139.804,1696.673 C140.046668,1696.62967 140.263332,1696.56467 140.454,1696.478 L140.558,1698.922 C140.280665,1699.026 139.951335,1699.10833 139.57,1699.169 C139.188665,1699.22967 138.824668,1699.26 138.478,1699.26 C137.645996,1699.26 136.970003,1699.143 136.45,1698.909 C135.929997,1698.675 135.518335,1698.35434 135.215,1697.947 C134.911665,1697.53966 134.703667,1697.07167 134.591,1696.543 C134.478333,1696.01433 134.422,1695.44667 134.422,1694.84 L134.422,1689.016 L132.238,1689.016 Z M149.814,1686.156 C150.628671,1686.156 151.32633,1686.299 151.907,1686.585 C152.48767,1686.871 152.964331,1687.248 153.337,1687.716 C153.709669,1688.184 153.982666,1688.72133 154.156,1689.328 C154.329334,1689.93467 154.416,1690.55866 154.416,1691.2 L154.416,1699 L151.296,1699 L151.296,1692.136 C151.296,1691.772 151.27,1691.395 151.218,1691.005 C151.166,1690.615 151.057667,1690.25967 150.893,1689.939 C150.728333,1689.61833 150.494335,1689.354 150.191,1689.146 C149.887665,1688.938 149.484669,1688.834 148.982,1688.834 C148.479331,1688.834 148.046002,1688.92933 147.682,1689.12 C147.317998,1689.31067 147.014668,1689.56633 146.772,1689.887 C146.529332,1690.20767 146.347334,1690.56733 146.226,1690.966 C146.104666,1691.36467 146.044,1691.772 146.044,1692.188 L146.044,1699 L142.924,1699 L142.924,1679.344 L146.044,1679.344 L146.044,1688.262 L146.096,1688.262 C146.217334,1688.002 146.394999,1687.74633 146.629,1687.495 C146.863001,1687.24367 147.135998,1687.01833 147.448,1686.819 C147.760002,1686.61967 148.115331,1686.45933 148.514,1686.338 C148.912669,1686.21667 149.345998,1686.156 149.814,1686.156 Z M158.108,1686.52 L161.228,1686.52 L161.228,1699 L158.108,1699 L158.108,1686.52 Z M157.666,1682.282 C157.666,1681.77933 157.852331,1681.34167 158.225,1680.969 C158.597669,1680.59633 159.069997,1680.41 159.642,1680.41 C160.214003,1680.41 160.694998,1680.58766 161.085,1680.943 C161.475002,1681.29834 161.67,1681.74466 161.67,1682.282 C161.67,1682.81934 161.475002,1683.26566 161.085,1683.621 C160.694998,1683.97634 160.214003,1684.154 159.642,1684.154 C159.069997,1684.154 158.597669,1683.96767 158.225,1683.595 C157.852331,1683.22233 157.666,1682.78467 157.666,1682.282 Z M165.024,1686.52 L167.988,1686.52 L167.988,1688.522 L168.04,1688.522 C168.317335,1687.898 168.79833,1687.34767 169.483,1686.871 C170.16767,1686.39433 170.977995,1686.156 171.914,1686.156 C172.728671,1686.156 173.42633,1686.299 174.007,1686.585 C174.58767,1686.871 175.064331,1687.248 175.437,1687.716 C175.809669,1688.184 176.082666,1688.72133 176.256,1689.328 C176.429334,1689.93467 176.516,1690.55866 176.516,1691.2 L176.516,1699 L173.396,1699 L173.396,1692.084 C173.396,1691.72 173.37,1691.33867 173.318,1690.94 C173.266,1690.54133 173.153334,1690.18167 172.98,1689.861 C172.806666,1689.54033 172.568335,1689.276 172.265,1689.068 C171.961665,1688.86 171.558669,1688.756 171.056,1688.756 C170.553331,1688.756 170.120002,1688.85567 169.756,1689.055 C169.391998,1689.25433 169.093001,1689.51 168.859,1689.822 C168.624999,1690.134 168.447334,1690.49366 168.326,1690.901 C168.204666,1691.30834 168.144,1691.72 168.144,1692.136 L168.144,1699 L165.024,1699 L165.024,1686.52 Z M192.844,1686.52 L192.844,1697.882 C192.844,1699.00867 192.705335,1700.027 192.428,1700.937 C192.150665,1701.847 191.72167,1702.61833 191.141,1703.251 C190.56033,1703.88367 189.828004,1704.37333 188.944,1704.72 C188.059996,1705.06667 187.011339,1705.24 185.798,1705.24 C185.295331,1705.24 184.762336,1705.19667 184.199,1705.11 C183.635664,1705.02333 183.081003,1704.89333 182.535,1704.72 C181.988997,1704.54667 181.464669,1704.33 180.962,1704.07 C180.459331,1703.81 180.008669,1703.51533 179.61,1703.186 L181.404,1700.768 C182.01067,1701.34 182.69533,1701.77767 183.458,1702.081 C184.22067,1702.38433 184.991996,1702.536 185.772,1702.536 C186.517337,1702.536 187.145664,1702.42767 187.657,1702.211 C188.168336,1701.99433 188.575665,1701.69534 188.879,1701.314 C189.182335,1700.93266 189.398999,1700.482 189.529,1699.962 C189.659001,1699.442 189.724,1698.87 189.724,1698.246 L189.724,1697.336 L189.672,1697.336 C189.221331,1697.94267 188.645004,1698.40633 187.943,1698.727 C187.240996,1699.04767 186.456671,1699.208 185.59,1699.208 C184.653995,1699.208 183.80467,1699.03467 183.042,1698.688 C182.27933,1698.34133 181.633669,1697.87334 181.105,1697.284 C180.576331,1696.69466 180.164668,1696.00567 179.87,1695.217 C179.575332,1694.42833 179.428,1693.592 179.428,1692.708 C179.428,1691.80666 179.570999,1690.95734 179.857,1690.16 C180.143001,1689.36266 180.550331,1688.66934 181.079,1688.08 C181.607669,1687.49066 182.248996,1687.02267 183.003,1686.676 C183.757004,1686.32933 184.601995,1686.156 185.538,1686.156 C186.422004,1686.156 187.24533,1686.338 188.008,1686.702 C188.77067,1687.066 189.377331,1687.62933 189.828,1688.392 L189.88,1688.392 L189.88,1686.52 L192.844,1686.52 Z M186.188,1688.704 C185.615997,1688.704 185.109002,1688.808 184.667,1689.016 C184.224998,1689.224 183.852335,1689.50566 183.549,1689.861 C183.245665,1690.21634 183.011667,1690.63666 182.847,1691.122 C182.682333,1691.60734 182.6,1692.12733 182.6,1692.682 C182.6,1693.18467 182.682333,1693.67 182.847,1694.138 C183.011667,1694.606 183.245665,1695.02633 183.549,1695.399 C183.852335,1695.77167 184.224998,1696.07067 184.667,1696.296 C185.109002,1696.52133 185.607331,1696.634 186.162,1696.634 C186.734003,1696.634 187.249664,1696.52567 187.709,1696.309 C188.168336,1696.09233 188.558332,1695.802 188.879,1695.438 C189.199668,1695.074 189.446666,1694.65367 189.62,1694.177 C189.793334,1693.70033 189.88,1693.202 189.88,1692.682 C189.88,1692.14466 189.793334,1691.63334 189.62,1691.148 C189.446666,1690.66266 189.199668,1690.238 188.879,1689.874 C188.558332,1689.51 188.172669,1689.224 187.722,1689.016 C187.271331,1688.808 186.760003,1688.704 186.188,1688.704 Z M194.794,1689.016 L194.794,1686.52 L196.978,1686.52 L196.978,1682.906 L200.046,1682.906 L200.046,1686.52 L203.166,1686.52 L203.166,1689.016 L200.046,1689.016 L200.046,1694.814 C200.046,1695.36867 200.145666,1695.828 200.345,1696.192 C200.544334,1696.556 200.990663,1696.738 201.684,1696.738 C201.892001,1696.738 202.117332,1696.71633 202.36,1696.673 C202.602668,1696.62967 202.819332,1696.56467 203.01,1696.478 L203.114,1698.922 C202.836665,1699.026 202.507335,1699.10833 202.126,1699.169 C201.744665,1699.22967 201.380668,1699.26 201.034,1699.26 C200.201996,1699.26 199.526003,1699.143 199.006,1698.909 C198.485997,1698.675 198.074335,1698.35434 197.771,1697.947 C197.467665,1697.53966 197.259667,1697.07167 197.147,1696.543 C197.034333,1696.01433 196.978,1695.44667 196.978,1694.84 L196.978,1689.016 L194.794,1689.016 Z M214.216,1691.512 C214.216,1691.11333 214.159667,1690.732 214.047,1690.368 C213.934333,1690.004 213.756668,1689.68333 213.514,1689.406 C213.271332,1689.12867 212.963669,1688.90767 212.591,1688.743 C212.218331,1688.57833 211.780669,1688.496 211.278,1688.496 C210.341995,1688.496 209.549003,1688.77766 208.899,1689.341 C208.248997,1689.90434 207.889334,1690.628 207.82,1691.512 L214.216,1691.512 Z M217.336,1692.916 L217.336,1693.332 C217.336,1693.47067 217.327333,1693.60933 217.31,1693.748 L207.82,1693.748 C207.854667,1694.19867 207.971666,1694.61033 208.171,1694.983 C208.370334,1695.35567 208.634665,1695.67633 208.964,1695.945 C209.293335,1696.21367 209.665998,1696.426 210.082,1696.582 C210.498002,1696.738 210.931331,1696.816 211.382,1696.816 C212.162004,1696.816 212.820664,1696.673 213.358,1696.387 C213.895336,1696.101 214.337332,1695.70667 214.684,1695.204 L216.764,1696.868 C215.533327,1698.53201 213.748012,1699.364 211.408,1699.364 C210.437328,1699.364 209.544671,1699.21233 208.73,1698.909 C207.915329,1698.60567 207.209003,1698.17667 206.611,1697.622 C206.012997,1697.06733 205.545002,1696.387 205.207,1695.581 C204.868998,1694.775 204.7,1693.86067 204.7,1692.838 C204.7,1691.83266 204.868998,1690.91834 205.207,1690.095 C205.545002,1689.27166 206.008664,1688.56967 206.598,1687.989 C207.187336,1687.40833 207.884996,1686.95767 208.691,1686.637 C209.497004,1686.31633 210.367995,1686.156 211.304,1686.156 C212.170671,1686.156 212.97233,1686.299 213.709,1686.585 C214.44567,1686.871 215.082664,1687.29566 215.62,1687.859 C216.157336,1688.42234 216.577665,1689.12433 216.881,1689.965 C217.184335,1690.80567 217.336,1691.78933 217.336,1692.916 Z M220.352,1686.52 L223.342,1686.52 L223.342,1688.6 L223.394,1688.6 C223.740668,1687.872 224.225997,1687.28267 224.85,1686.832 C225.474003,1686.38133 226.201996,1686.156 227.034,1686.156 C227.155334,1686.156 227.285333,1686.16033 227.424,1686.169 C227.562667,1686.17767 227.683999,1686.19933 227.788,1686.234 L227.788,1689.094 C227.579999,1689.042 227.402334,1689.00733 227.255,1688.99 C227.107666,1688.97267 226.964667,1688.964 226.826,1688.964 C226.11533,1688.964 225.543335,1689.094 225.11,1689.354 C224.676664,1689.614 224.338668,1689.926 224.096,1690.29 C223.853332,1690.654 223.688667,1691.02666 223.602,1691.408 C223.515333,1691.78934 223.472,1692.09267 223.472,1692.318 L223.472,1699 L220.352,1699 L220.352,1686.52 Z M229.816,1686.52 L232.78,1686.52 L232.78,1688.522 L232.832,1688.522 C233.109335,1687.898 233.59033,1687.34767 234.275,1686.871 C234.95967,1686.39433 235.769995,1686.156 236.706,1686.156 C237.520671,1686.156 238.21833,1686.299 238.799,1686.585 C239.37967,1686.871 239.856331,1687.248 240.229,1687.716 C240.601669,1688.184 240.874666,1688.72133 241.048,1689.328 C241.221334,1689.93467 241.308,1690.55866 241.308,1691.2 L241.308,1699 L238.188,1699 L238.188,1692.084 C238.188,1691.72 238.162,1691.33867 238.11,1690.94 C238.058,1690.54133 237.945334,1690.18167 237.772,1689.861 C237.598666,1689.54033 237.360335,1689.276 237.057,1689.068 C236.753665,1688.86 236.350669,1688.756 235.848,1688.756 C235.345331,1688.756 234.912002,1688.85567 234.548,1689.055 C234.183998,1689.25433 233.885001,1689.51 233.651,1689.822 C233.416999,1690.134 233.239334,1690.49366 233.118,1690.901 C232.996666,1691.30834 232.936,1691.72 232.936,1692.136 L232.936,1699 L229.816,1699 L229.816,1686.52 Z M253.736,1691.512 C253.736,1691.11333 253.679667,1690.732 253.567,1690.368 C253.454333,1690.004 253.276668,1689.68333 253.034,1689.406 C252.791332,1689.12867 252.483669,1688.90767 252.111,1688.743 C251.738331,1688.57833 251.300669,1688.496 250.798,1688.496 C249.861995,1688.496 249.069003,1688.77766 248.419,1689.341 C247.768997,1689.90434 247.409334,1690.628 247.34,1691.512 L253.736,1691.512 Z M256.856,1692.916 L256.856,1693.332 C256.856,1693.47067 256.847333,1693.60933 256.83,1693.748 L247.34,1693.748 C247.374667,1694.19867 247.491666,1694.61033 247.691,1694.983 C247.890334,1695.35567 248.154665,1695.67633 248.484,1695.945 C248.813335,1696.21367 249.185998,1696.426 249.602,1696.582 C250.018002,1696.738 250.451331,1696.816 250.902,1696.816 C251.682004,1696.816 252.340664,1696.673 252.878,1696.387 C253.415336,1696.101 253.857332,1695.70667 254.204,1695.204 L256.284,1696.868 C255.053327,1698.53201 253.268012,1699.364 250.928,1699.364 C249.957328,1699.364 249.064671,1699.21233 248.25,1698.909 C247.435329,1698.60567 246.729003,1698.17667 246.131,1697.622 C245.532997,1697.06733 245.065002,1696.387 244.727,1695.581 C244.388998,1694.775 244.22,1693.86067 244.22,1692.838 C244.22,1691.83266 244.388998,1690.91834 244.727,1690.095 C245.065002,1689.27166 245.528664,1688.56967 246.118,1687.989 C246.707336,1687.40833 247.404996,1686.95767 248.211,1686.637 C249.017004,1686.31633 249.887995,1686.156 250.824,1686.156 C251.690671,1686.156 252.49233,1686.299 253.229,1686.585 C253.96567,1686.871 254.602664,1687.29566 255.14,1687.859 C255.677336,1688.42234 256.097665,1689.12433 256.401,1689.965 C256.704335,1690.80567 256.856,1691.78933 256.856,1692.916 Z M258.078,1689.016 L258.078,1686.52 L260.262,1686.52 L260.262,1682.906 L263.33,1682.906 L263.33,1686.52 L266.45,1686.52 L266.45,1689.016 L263.33,1689.016 L263.33,1694.814 C263.33,1695.36867 263.429666,1695.828 263.629,1696.192 C263.828334,1696.556 264.274663,1696.738 264.968,1696.738 C265.176001,1696.738 265.401332,1696.71633 265.644,1696.673 C265.886668,1696.62967 266.103332,1696.56467 266.294,1696.478 L266.398,1698.922 C266.120665,1699.026 265.791335,1699.10833 265.41,1699.169 C265.028665,1699.22967 264.664668,1699.26 264.318,1699.26 C263.485996,1699.26 262.810003,1699.143 262.29,1698.909 C261.769997,1698.675 261.358335,1698.35434 261.055,1697.947 C260.751665,1697.53966 260.543667,1697.07167 260.431,1696.543 C260.318333,1696.01433 260.262,1695.44667 260.262,1694.84 L260.262,1689.016 L258.078,1689.016 Z" id="thingternet"></path>
        </g>
    </g>
</svg>